<?xml version="1.0" encoding="UTF-8"?>
<svg id="Layer_1" data-name="Layer 1" xmlns="http://www.w3.org/2000/svg" xmlns:xlink="http://www.w3.org/1999/xlink" version="1.1" viewBox="0 0 954.5 954.5">
  <defs>
    <style>
      .cls-1 {
        fill: none;
      }

      .cls-1, .cls-2 {
        stroke-width: 0px;
      }

      .cls-3 {
        fill: url(#linear-gradient-15);
        stroke: url(#linear-gradient-16);
      }

      .cls-3, .cls-4, .cls-5, .cls-6, .cls-7, .cls-8, .cls-9, .cls-10, .cls-11, .cls-12, .cls-13, .cls-14, .cls-15 {
        stroke-miterlimit: 10;
        stroke-width: 10px;
      }

      .cls-4 {
        fill: url(#linear-gradient-17);
        stroke: url(#linear-gradient-18);
      }

      .cls-5 {
        fill: url(#linear-gradient-11);
        stroke: url(#linear-gradient-12);
      }

      .cls-6 {
        fill: url(#linear-gradient-13);
        stroke: url(#linear-gradient-14);
      }

      .cls-7 {
        fill: url(#linear-gradient-25);
        stroke: url(#linear-gradient-26);
      }

      .cls-8 {
        fill: url(#linear-gradient-9);
        stroke: url(#linear-gradient-10);
      }

      .cls-2 {
        fill: #000;
      }

      .cls-9 {
        fill: url(#linear-gradient);
        stroke: url(#linear-gradient-2);
      }

      .cls-10 {
        fill: url(#linear-gradient-19);
        stroke: url(#linear-gradient-20);
      }

      .cls-10, .cls-11, .cls-12 {
        fill-rule: evenodd;
      }

      .cls-11 {
        fill: url(#linear-gradient-23);
        stroke: url(#linear-gradient-24);
      }

      .cls-12 {
        fill: url(#linear-gradient-21);
        stroke: url(#linear-gradient-22);
      }

      .cls-13 {
        fill: url(#linear-gradient-7);
        stroke: url(#linear-gradient-8);
      }

      .cls-14 {
        fill: url(#linear-gradient-3);
        stroke: url(#linear-gradient-4);
      }

      .cls-15 {
        fill: url(#linear-gradient-5);
        stroke: url(#linear-gradient-6);
      }

      .cls-16 {
        display: none;
      }
    </style>
    <linearGradient id="linear-gradient" x1="20.9" y1="310" x2="476.7" y2="310" gradientUnits="userSpaceOnUse">
      <stop offset="0" stop-color="#000"/>
      <stop offset=".3" stop-color="#e86100"/>
      <stop offset=".6" stop-color="#e86100"/>
      <stop offset="1" stop-color="#000"/>
    </linearGradient>
    <linearGradient id="linear-gradient-2" x1="14.7" y1="311.3" x2="493.4" y2="311.3" gradientUnits="userSpaceOnUse">
      <stop offset="0" stop-color="#462523"/>
      <stop offset="0" stop-color="#fff"/>
      <stop offset="0" stop-color="#462523"/>
      <stop offset=".2" stop-color="#cb9b51"/>
      <stop offset=".5" stop-color="#f6e27a"/>
      <stop offset=".5" stop-color="#f6f2c0"/>
      <stop offset=".6" stop-color="#f6e27a"/>
      <stop offset=".8" stop-color="#cb9b51"/>
      <stop offset="1" stop-color="#462523"/>
    </linearGradient>
    <linearGradient id="linear-gradient-3" x1="144.4" y1="249.1" x2="477.4" y2="249.1" gradientUnits="userSpaceOnUse">
      <stop offset="0" stop-color="#462523"/>
      <stop offset="0" stop-color="#fff"/>
      <stop offset="0" stop-color="#462523"/>
      <stop offset=".2" stop-color="#cb9b51"/>
      <stop offset=".4" stop-color="#f6e27a"/>
      <stop offset=".6" stop-color="#f6e27a"/>
      <stop offset=".8" stop-color="#cb9b51"/>
      <stop offset="1" stop-color="#462523"/>
    </linearGradient>
    <linearGradient id="linear-gradient-4" x1="137.3" y1="255" x2="487" y2="255" gradientUnits="userSpaceOnUse">
      <stop offset="0" stop-color="#462523"/>
      <stop offset="0" stop-color="#fff"/>
      <stop offset="0" stop-color="#462523"/>
      <stop offset=".2" stop-color="#cb9b51"/>
      <stop offset=".5" stop-color="#f6e27a"/>
      <stop offset=".5" stop-color="#f6f2c0"/>
      <stop offset=".6" stop-color="#f6e27a"/>
      <stop offset=".8" stop-color="#cb9b51"/>
      <stop offset="1" stop-color="#462523"/>
    </linearGradient>
    <linearGradient id="linear-gradient-5" x1="477.3" y1="249.4" x2="812.1" y2="249.4" gradientUnits="userSpaceOnUse">
      <stop offset="0" stop-color="#462523"/>
      <stop offset="0" stop-color="#fff"/>
      <stop offset="0" stop-color="#462523"/>
      <stop offset=".2" stop-color="#cb9b51"/>
      <stop offset=".4" stop-color="#f6e27a"/>
      <stop offset=".6" stop-color="#f6e27a"/>
      <stop offset=".8" stop-color="#cb9b51"/>
      <stop offset="1" stop-color="#462523"/>
    </linearGradient>
    <linearGradient id="linear-gradient-6" x1="467.6" y1="254.7" x2="819.1" y2="254.7" gradientUnits="userSpaceOnUse">
      <stop offset="0" stop-color="#462523"/>
      <stop offset="0" stop-color="#fff"/>
      <stop offset="0" stop-color="#462523"/>
      <stop offset=".2" stop-color="#cb9b51"/>
      <stop offset=".5" stop-color="#f6e27a"/>
      <stop offset=".5" stop-color="#f6f2c0"/>
      <stop offset=".6" stop-color="#f6e27a"/>
      <stop offset=".8" stop-color="#cb9b51"/>
      <stop offset="1" stop-color="#462523"/>
    </linearGradient>
    <linearGradient id="linear-gradient-7" x1="477.3" y1="310.9" x2="933.7" y2="310.9" gradientUnits="userSpaceOnUse">
      <stop offset="0" stop-color="#000"/>
      <stop offset=".3" stop-color="#e86100"/>
      <stop offset=".6" stop-color="#e86100"/>
      <stop offset="1" stop-color="#000"/>
    </linearGradient>
    <linearGradient id="linear-gradient-8" x1="460.5" y1="312.1" x2="939.9" y2="312.1" gradientUnits="userSpaceOnUse">
      <stop offset="0" stop-color="#462523"/>
      <stop offset="0" stop-color="#fff"/>
      <stop offset="0" stop-color="#462523"/>
      <stop offset=".2" stop-color="#cb9b51"/>
      <stop offset=".5" stop-color="#f6e27a"/>
      <stop offset=".5" stop-color="#f6f2c0"/>
      <stop offset=".6" stop-color="#f6e27a"/>
      <stop offset=".8" stop-color="#cb9b51"/>
      <stop offset="1" stop-color="#462523"/>
    </linearGradient>
    <linearGradient id="linear-gradient-9" x1="477.3" y1="644.7" x2="933.1" y2="644.7" gradientUnits="userSpaceOnUse">
      <stop offset="0" stop-color="#000"/>
      <stop offset=".3" stop-color="#e86100"/>
      <stop offset=".6" stop-color="#e86100"/>
      <stop offset="1" stop-color="#000"/>
    </linearGradient>
    <linearGradient id="linear-gradient-10" x1="460.6" y1="643.4" x2="939.2" y2="643.4" gradientUnits="userSpaceOnUse">
      <stop offset="0" stop-color="#462523"/>
      <stop offset="0" stop-color="#fff"/>
      <stop offset="0" stop-color="#462523"/>
      <stop offset=".2" stop-color="#cb9b51"/>
      <stop offset=".5" stop-color="#f6e27a"/>
      <stop offset=".5" stop-color="#f6f2c0"/>
      <stop offset=".6" stop-color="#f6e27a"/>
      <stop offset=".8" stop-color="#cb9b51"/>
      <stop offset="1" stop-color="#462523"/>
    </linearGradient>
    <linearGradient id="linear-gradient-11" x1="477.2" y1="705.5" x2="810.3" y2="705.5" gradientUnits="userSpaceOnUse">
      <stop offset="0" stop-color="#462523"/>
      <stop offset="0" stop-color="#fff"/>
      <stop offset="0" stop-color="#462523"/>
      <stop offset=".2" stop-color="#cb9b51"/>
      <stop offset=".4" stop-color="#f6e27a"/>
      <stop offset=".6" stop-color="#f6e27a"/>
      <stop offset=".8" stop-color="#cb9b51"/>
      <stop offset="1" stop-color="#462523"/>
    </linearGradient>
    <linearGradient id="linear-gradient-12" x1="467.6" y1="700.2" x2="822.4" y2="700.2" gradientUnits="userSpaceOnUse">
      <stop offset="0" stop-color="#462523"/>
      <stop offset="0" stop-color="#fff"/>
      <stop offset="0" stop-color="#462523"/>
      <stop offset=".2" stop-color="#cb9b51"/>
      <stop offset=".5" stop-color="#f6e27a"/>
      <stop offset=".5" stop-color="#f6f2c0"/>
      <stop offset=".6" stop-color="#f6e27a"/>
      <stop offset=".8" stop-color="#cb9b51"/>
      <stop offset="1" stop-color="#462523"/>
    </linearGradient>
    <linearGradient id="linear-gradient-13" x1="142.4" y1="705.2" x2="477.3" y2="705.2" gradientUnits="userSpaceOnUse">
      <stop offset="0" stop-color="#462523"/>
      <stop offset="0" stop-color="#fff"/>
      <stop offset="0" stop-color="#462523"/>
      <stop offset=".2" stop-color="#cb9b51"/>
      <stop offset=".4" stop-color="#f6e27a"/>
      <stop offset=".6" stop-color="#f6e27a"/>
      <stop offset=".8" stop-color="#cb9b51"/>
      <stop offset="1" stop-color="#462523"/>
    </linearGradient>
    <linearGradient id="linear-gradient-14" x1="135.3" y1="705.7" x2="483.8" y2="705.7" gradientUnits="userSpaceOnUse">
      <stop offset="0" stop-color="#462523"/>
      <stop offset="0" stop-color="#fff"/>
      <stop offset="0" stop-color="#462523"/>
      <stop offset=".2" stop-color="#cb9b51"/>
      <stop offset=".5" stop-color="#f6e27a"/>
      <stop offset=".5" stop-color="#f6f2c0"/>
      <stop offset=".6" stop-color="#f6e27a"/>
      <stop offset=".8" stop-color="#cb9b51"/>
      <stop offset="1" stop-color="#462523"/>
    </linearGradient>
    <linearGradient id="linear-gradient-15" x1="20.9" y1="643.7" x2="477.3" y2="643.7" gradientUnits="userSpaceOnUse">
      <stop offset="0" stop-color="#000"/>
      <stop offset=".3" stop-color="#e86100"/>
      <stop offset=".6" stop-color="#e86100"/>
      <stop offset="1" stop-color="#000"/>
    </linearGradient>
    <linearGradient id="linear-gradient-16" x1="14.7" y1="644" x2="482.3" y2="644" gradientUnits="userSpaceOnUse">
      <stop offset="0" stop-color="#462523"/>
      <stop offset="0" stop-color="#fff"/>
      <stop offset="0" stop-color="#462523"/>
      <stop offset=".2" stop-color="#cb9b51"/>
      <stop offset=".5" stop-color="#f6e27a"/>
      <stop offset=".5" stop-color="#f6f2c0"/>
      <stop offset=".6" stop-color="#f6e27a"/>
      <stop offset=".8" stop-color="#cb9b51"/>
      <stop offset="1" stop-color="#462523"/>
    </linearGradient>
    <linearGradient id="linear-gradient-17" x1="5" y1="476.1" x2="477.3" y2="476.1" gradientUnits="userSpaceOnUse">
      <stop offset="0" stop-color="#462523"/>
      <stop offset="0" stop-color="#fff"/>
      <stop offset="0" stop-color="#462523"/>
      <stop offset=".2" stop-color="#cb9b51"/>
      <stop offset=".4" stop-color="#f6e27a"/>
      <stop offset=".6" stop-color="#f6e27a"/>
      <stop offset=".8" stop-color="#cb9b51"/>
      <stop offset="1" stop-color="#462523"/>
    </linearGradient>
    <linearGradient id="linear-gradient-18" x1="0" y1="476.1" x2="482.3" y2="476.1" gradientUnits="userSpaceOnUse">
      <stop offset="0" stop-color="#462523"/>
      <stop offset="0" stop-color="#fff"/>
      <stop offset="0" stop-color="#462523"/>
      <stop offset=".2" stop-color="#cb9b51"/>
      <stop offset=".5" stop-color="#f6e27a"/>
      <stop offset=".5" stop-color="#f6f2c0"/>
      <stop offset=".6" stop-color="#f6e27a"/>
      <stop offset=".8" stop-color="#cb9b51"/>
      <stop offset="1" stop-color="#462523"/>
    </linearGradient>
    <linearGradient id="linear-gradient-19" x1="356.4" y1="241.1" x2="600.8" y2="241.1" gradientUnits="userSpaceOnUse">
      <stop offset="0" stop-color="#000"/>
      <stop offset=".3" stop-color="#e86100"/>
      <stop offset=".6" stop-color="#e86100"/>
      <stop offset="1" stop-color="#000"/>
    </linearGradient>
    <linearGradient id="linear-gradient-20" x1="350.3" y1="248.3" x2="606.9" y2="248.3" gradientUnits="userSpaceOnUse">
      <stop offset="0" stop-color="#462523"/>
      <stop offset="0" stop-color="#fff"/>
      <stop offset="0" stop-color="#462523"/>
      <stop offset=".2" stop-color="#cb9b51"/>
      <stop offset=".5" stop-color="#f6e27a"/>
      <stop offset=".5" stop-color="#f6f2c0"/>
      <stop offset=".6" stop-color="#f6e27a"/>
      <stop offset=".8" stop-color="#cb9b51"/>
      <stop offset="1" stop-color="#462523"/>
    </linearGradient>
    <linearGradient id="linear-gradient-21" x1="353.9" y1="713.4" x2="598.3" y2="713.4" gradientUnits="userSpaceOnUse">
      <stop offset="0" stop-color="#000"/>
      <stop offset=".3" stop-color="#e86100"/>
      <stop offset=".7" stop-color="#e86100"/>
      <stop offset="1" stop-color="#000"/>
    </linearGradient>
    <linearGradient id="linear-gradient-22" x1="347.7" y1="713.4" x2="604.4" y2="713.4" gradientUnits="userSpaceOnUse">
      <stop offset="0" stop-color="#462523"/>
      <stop offset="0" stop-color="#fff"/>
      <stop offset="0" stop-color="#462523"/>
      <stop offset=".2" stop-color="#cb9b51"/>
      <stop offset=".5" stop-color="#f6e27a"/>
      <stop offset=".5" stop-color="#f6f2c0"/>
      <stop offset=".6" stop-color="#f6e27a"/>
      <stop offset=".8" stop-color="#cb9b51"/>
      <stop offset="1" stop-color="#462523"/>
    </linearGradient>
    <linearGradient id="linear-gradient-23" x1="477.3" y1="478.5" x2="949.5" y2="478.5" gradientUnits="userSpaceOnUse">
      <stop offset="0" stop-color="#462523"/>
      <stop offset="0" stop-color="#fff"/>
      <stop offset="0" stop-color="#462523"/>
      <stop offset=".2" stop-color="#cb9b51"/>
      <stop offset=".4" stop-color="#f6e27a"/>
      <stop offset=".6" stop-color="#f6e27a"/>
      <stop offset=".8" stop-color="#cb9b51"/>
      <stop offset="1" stop-color="#462523"/>
    </linearGradient>
    <linearGradient id="linear-gradient-24" x1="458" y1="478.5" x2="954.5" y2="478.5" gradientUnits="userSpaceOnUse">
      <stop offset="0" stop-color="#462523"/>
      <stop offset="0" stop-color="#fff"/>
      <stop offset="0" stop-color="#462523"/>
      <stop offset=".2" stop-color="#cb9b51"/>
      <stop offset=".5" stop-color="#f6e27a"/>
      <stop offset=".5" stop-color="#f6f2c0"/>
      <stop offset=".6" stop-color="#f6e27a"/>
      <stop offset=".8" stop-color="#cb9b51"/>
      <stop offset="1" stop-color="#462523"/>
    </linearGradient>
    <linearGradient id="linear-gradient-25" x1="424.5" y1="485" x2="527.7" y2="485" gradientUnits="userSpaceOnUse">
      <stop offset="0" stop-color="#462523"/>
      <stop offset="0" stop-color="#fff"/>
      <stop offset="0" stop-color="#462523"/>
      <stop offset=".2" stop-color="#cb9b51"/>
      <stop offset=".5" stop-color="#f6e27a"/>
      <stop offset=".5" stop-color="#f6f2c0"/>
      <stop offset=".6" stop-color="#f6e27a"/>
      <stop offset=".7" stop-color="#e9cc6d"/>
      <stop offset=".8" stop-color="#cb9b51"/>
      <stop offset="1" stop-color="#462523"/>
    </linearGradient>
    <linearGradient id="linear-gradient-26" x1="419.5" y1="485" x2="532.7" y2="485" gradientUnits="userSpaceOnUse">
      <stop offset="0" stop-color="#462523"/>
      <stop offset="0" stop-color="#fff"/>
      <stop offset="0" stop-color="#462523"/>
      <stop offset=".2" stop-color="#cb9b51"/>
      <stop offset=".5" stop-color="#f6e27a"/>
      <stop offset=".5" stop-color="#f6f2c0"/>
      <stop offset=".6" stop-color="#f6e27a"/>
      <stop offset=".8" stop-color="#cb9b51"/>
      <stop offset="1" stop-color="#462523"/>
    </linearGradient>
  </defs>
  <path class="cls-9" d="M476.7,477.4h0L20.9,354c21.7-79.9,64.2-152.9,122.8-211.4l333,334.8Z"/>
  <path class="cls-14" d="M356.4,20.9l121,456.4L144.4,142.5c56.7-56.5,128.5-99.3,211.4-121.4l.7-.2h-.1Z"/>
  <path class="cls-15" d="M812.1,144.3l-334.8,333L600.7,21.5c79.9,21.7,152.9,64.1,211.4,122.8h0Z"/>
  <path class="cls-13" d="M933.5,355.7l.2.7-456.4,121h0l334.8-333c56.5,56.7,99.3,128.5,121.4,211.4h0Z"/>
  <path class="cls-8" d="M933.1,600.7c-21.7,79.9-64.2,152.9-122.8,211.4l-333-334.8,455.8,123.4h0Z"/>
  <path class="cls-5" d="M810.3,812.1c-56.7,56.5-128.5,99.3-211.4,121.4l-.7.2-121-456.4,333,334.8h0Z"/>
  <path class="cls-6" d="M477.3,477.3h0l-123.5,455.8c-79.9-21.7-152.9-64.2-211.4-122.8l334.8-333h.1Z"/>
  <path class="cls-3" d="M477.3,477.3l-334.8,333c-56.5-56.7-99.3-128.5-121.4-211.4l-.2-.7,456.4-121h0Z"/>
  <path class="cls-4" d="M477.3,477.3L20.9,598.3c-22-83.1-20.5-167,.6-244.4l455.8,123.5h0Z"/>
  <path class="cls-10" d="M600.8,21.5l-123.4,455.8L356.4,20.9c83.1-22,167-20.5,244.4.6Z"/>
  <path class="cls-12" d="M477.3,477.3l121,456.4c-83.1,22-167,20.5-244.4-.6l123.5-455.8h0Z"/>
  <path class="cls-11" d="M933.7,356.3c22,83.1,20.5,167-.6,244.4l-455.8-123.4h0l456.4-121h0Z"/>
  <line class="cls-1" x1="477.3" y1="477.3" x2="477.3" y2="477.3"/>
  <g class="cls-16">
    <path class="cls-2" d="M669.7,384.5l12.2-4.9-9.9-24.5-10.4,4.2-2.5-6.1c5.6-3.3,9.1-6,12.3-9.4l9.5-3.8,13.9,34.5,10.4-4.2,3.2,7.9-35.5,14.4-3.2-7.9v-.2Z"/>
    <path class="cls-2" d="M707.7,353.4c-5.8-14.4-.9-25,11.1-29.9,12-4.8,22.9-.6,28.8,13.7,5.8,14.4,1,25.4-11,30.2-12,4.8-23.1.3-28.9-14.1h0ZM735.3,342.2c-4.7-11.6-9.1-12.9-13.5-11.1-4.3,1.8-6.7,5.8-2,17.3,4.7,11.6,9.3,13.2,13.6,11.5,4.3-1.8,6.5-6.2,1.8-17.7h0Z"/>
    <path class="cls-2" d="M754,334.7c-5.8-14.4-.9-25,11.1-29.9,12-4.8,22.9-.6,28.8,13.7,5.8,14.4,1,25.4-11,30.2-12,4.8-23.1.3-28.9-14.1h0ZM781.7,323.5c-4.7-11.6-9.1-12.9-13.5-11.1-4.3,1.8-6.7,5.8-2,17.3s9.3,13.2,13.6,11.5c4.3-1.8,6.5-6.2,1.8-17.7h0Z"/>
  </g>
  <g class="cls-16">
    <path class="cls-2" d="M334.9,684.9c1.1,18.8,2,32.1,7.5,35.6,3.7,2.4,7.5.9,10.3-3.5,2.3-3.6,2.2-7.7,1.8-11.5l8.9-3.3c.9,7.6,0,13.6-4.6,20.9-6.3,10-15.5,13.8-23,9.1-6.5-4.1-8.4-16.5-9.7-28.9-1.4,2.8-3.4,6.4-4.9,8.8l-6.5,10.2-7.5-4.8,22.6-35.7,5.1,3.2h0Z"/>
    <path class="cls-2" d="M308.6,725.7l2.3,8.9c-4.1,1.7-8.1,4.2-10.8,8.5-3.3,5.2-3.3,9.9.7,12.4,3.9,2.4,8,.5,11-4.2,1.9-2.9,2.3-4.8,2.8-8.8l5.9-3.6,18.6,13.7-18.2,28.8-7.5-4.8,11.8-18.7-6.7-5.4c-.6,2.3-1.4,4.1-2.7,6.2-5.5,8.8-14,13.8-22.2,8.6-8.6-5.4-8-17.3-1.7-27.2,5.2-8.3,11.2-12.4,16.8-14.5h0Z"/>
    <path class="cls-2" d="M296,778.5c13.2,8.3,15.3,19.8,8.4,30.7-6.9,10.9-18.3,13.9-31.4,5.6-13.2-8.3-15.7-20-8.8-31,6.9-10.9,18.6-13.7,31.7-5.4h0ZM280,803.7c10.6,6.7,14.9,5.1,17.4,1.1s2-8.6-8.5-15.2c-10.6-6.7-15.3-5.3-17.8-1.4-2.5,4-1.7,8.8,8.9,15.5h0Z"/>
  </g>
  <circle class="cls-7" cx="476.1" cy="485" r="51.6"/>
  <g>
    <path class="cls-2" d="M487.5,265.6c0,.9-.3,1.6-.9,2.2-.6.6-1.3.9-2.1.8l-24.2-.3,1.1-.7,2.6,3.5c.3.5.5,1,.5,1.7s-.3,1.4-.9,2c-.6.6-1.3.9-2.1.8-1,0-1.9-.5-2.5-1.5l-4.5-7c-.2-.3-.4-.7-.5-1.1,0-.4,0-.8,0-1.1,0-.9.3-1.7.9-2.2.6-.5,1.3-.8,2.1-.8l27.7.3c.8,0,1.5.3,2.1.9s.8,1.4.8,2.3v.2Z"/>
    <path class="cls-2" d="M488.2,246.7c0,1.2-.2,2.4-.6,3.8-.4,1.3-.9,2.4-1.6,3.3-.4.4-.8.7-1.4,1-.6.2-1.1.3-1.6.3s-1.1-.2-1.5-.7c-.5-.5-.7-1.1-.7-2s.3-1.3.9-2.1c.3-.5.6-1.1.9-1.7s.4-1.2.4-1.9c0-1.5-.2-2.9-.8-4-.5-1.1-1.3-2-2.3-2.6s-2.1-.9-3.5-.9-2.3.3-3.1.8c-.9.6-1.5,1.3-2,2.2-.5.9-.7,1.9-.8,2.9,0,1,0,1.9.5,2.6.3.7.6,1.4,1,2,.3.6.5,1.2.5,1.8,0,1.1-.3,1.8-.7,2.3-.5.5-1,.8-1.7.9-.6.1-1.2.1-1.7,0l-11.6-1.6c-.7-.1-1.2-.5-1.6-1-.4-.5-.6-1.2-.6-1.9v-13.9c.2-.8.4-1.4.9-1.9s1.2-.8,1.9-.7c.7,0,1.3.3,1.8.8s.7,1.2.7,1.9v12.4c0,0-.6-.5-.6-.5l9.7,1.4-1.8.6c-.3-.2-.6-.6-.9-1.3-.3-.6-.5-1.4-.7-2.2-.2-.8-.3-1.7-.3-2.5,0-2.1.5-4.1,1.5-5.7,1-1.7,2.3-3,4-4s3.6-1.4,5.7-1.4,4.5.6,6.3,1.7,3.1,2.6,4.1,4.6,1.4,4.3,1.4,7v.2Z"/>
    <path class="cls-2" d="M488.5,215.9c0,2.8-.8,5.1-2.3,7s-3.5,3.3-6.1,4.3c-2.6,1-5.6,1.4-9,1.4s-6.4-.6-9-1.6-4.6-2.5-6-4.4-2.1-4.3-2.1-7,.8-5.1,2.3-7,3.5-3.3,6.1-4.3,5.6-1.4,9-1.4,6.4.6,9,1.6,4.6,2.5,6.1,4.4c1.4,1.9,2.1,4.3,2.1,7h0ZM482.8,215.8c0-1.3-.4-2.5-1.2-3.5s-2.1-1.8-3.8-2.3c-1.7-.6-3.8-.9-6.4-.9s-4.7.2-6.4.7-3,1.3-3.8,2.2c-.9,1-1.3,2.1-1.3,3.5s.4,2.5,1.2,3.5,2.1,1.8,3.8,2.3c1.7.6,3.8.9,6.4.9s4.7-.2,6.4-.7,3-1.3,3.9-2.3,1.3-2.1,1.3-3.4h-.1Z"/>
  </g>
  <g>
    <path class="cls-2" d="M377.1,283.2c-.2-.2-.3-.5-.4-.9,0-.3,0-.8,0-1.3s0-1.4,0-2.2c0-.8-.5-1.6-1-2.5-.5-.8-1.2-1.5-2.1-2-.9-.5-1.9-.7-3-.7s-2.2.4-3.2,1c-1,.7-1.7,1.4-2.1,2.3-.4.8-.6,1.7-.5,2.6,0,.9.4,1.8.9,2.5.4.6.8,1,1.1,1.4.4.3.7.6,1.1.9.4.3.7.7,1,1.2.4.6.5,1.2.3,1.8-.2.6-.6,1.1-1.2,1.5-.4.2-.8.4-1.2.4h-1.4l-12.1-2.3.2-1.7,6.4,9.9c.4.6.5,1.3.4,2-.2.7-.6,1.3-1.2,1.7-.6.4-1.3.5-2,.4-.7-.2-1.2-.6-1.7-1.2l-7.9-12.4c-.5-.8-.7-1.6-.5-2.3.2-.7.6-1.3,1.3-1.7.3-.2.8-.4,1.2-.4s.9,0,1.3.1l12.3,2.2-.7,2c-.3-.2-.7-.5-1.2-1-.4-.5-.8-.9-1-1.2-1-1.6-1.5-3.2-1.4-4.9s.6-3.3,1.5-4.8,2.1-2.7,3.6-3.7c2-1.3,4-1.9,6-2,2,0,3.9.5,5.8,1.6s3.4,2.7,4.8,4.9c.6,1,1.1,2.1,1.5,3.2s.6,2.2.6,3.1,0,1.4-.3,1.9-.6.8-.9,1c-.6.4-1.3.6-2.2.5-.8,0-1.5-.5-1.9-1.1v.2Z"/>
    <path class="cls-2" d="M365.9,252.4c.6,1,1.2,2.2,1.6,3.5.4,1.3.6,2.5.4,3.7,0,.5-.3,1.1-.6,1.6s-.7.9-1.2,1.2c-.5.3-1,.4-1.7.2-.7-.1-1.2-.6-1.7-1.3-.3-.5-.4-1.3-.4-2.3s0-1.2-.2-1.9c0-.6-.3-1.2-.7-1.8-.8-1.3-1.8-2.3-2.9-2.9-1.1-.6-2.2-.9-3.4-.9s-2.3.4-3.4,1.1c-1,.7-1.7,1.5-2.2,2.4-.4.9-.6,1.9-.5,2.9,0,1,.4,2,1,2.9.5.8,1.1,1.5,1.8,1.9s1.3.8,1.9,1.2c.6.3,1.1.8,1.4,1.3.6.9.8,1.7.7,2.4,0,.7-.4,1.2-.9,1.7s-.9.8-1.4,1l-10.6,5c-.6.3-1.3.3-1.9,0-.6-.2-1.2-.6-1.6-1.2l-7.5-11.7c-.4-.6-.5-1.3-.4-2,.2-.7.6-1.3,1.2-1.7.6-.4,1.3-.5,2-.4.7.2,1.2.6,1.7,1.2l6.7,10.4-.6-.2,8.9-4.2-1.2,1.5c-.4,0-.9-.2-1.4-.6-.6-.4-1.2-.9-1.8-1.5s-1.2-1.2-1.6-1.9c-1.2-1.8-1.8-3.7-1.9-5.6,0-2,.3-3.8,1.2-5.5s2.2-3.2,4-4.3c2-1.3,4.1-2,6.2-2s4.1.5,6,1.6,3.6,2.8,5,5.1h0Z"/>
    <path class="cls-2" d="M349.3,226.4c1.5,2.3,2.1,4.7,1.9,7.1-.2,2.4-1.1,4.7-2.8,6.9-1.7,2.2-3.9,4.3-6.8,6.1-2.9,1.8-5.7,3.1-8.4,3.6-2.7.6-5.2.4-7.5-.4s-4.1-2.4-5.6-4.7c-1.5-2.3-2.1-4.7-1.9-7.1.2-2.4,1.1-4.7,2.8-6.9,1.6-2.2,3.9-4.3,6.8-6.1,2.9-1.8,5.6-3,8.4-3.6,2.7-.6,5.2-.5,7.5.4,2.3.8,4.1,2.4,5.6,4.7ZM344.5,229.5c-.7-1.1-1.7-1.9-3-2.2-1.2-.4-2.7-.3-4.5.2-1.7.5-3.7,1.4-5.8,2.8-2.2,1.4-3.8,2.8-5,4.2-1.1,1.4-1.8,2.7-2,4s0,2.5.8,3.6c.7,1.1,1.7,1.8,2.9,2.2s2.7.3,4.5-.1,3.7-1.4,5.9-2.8,3.8-2.8,5-4.1c1.1-1.4,1.8-2.7,2-4s0-2.5-.8-3.6v-.2Z"/>
  </g>
  <g>
    <path class="cls-2" d="M348.4,396.5c1.5.9,2.8,1.9,3.8,3s1.8,2.5,2.3,4.1c0,.4.2.8.2,1.2s0,.7-.3,1.1c-.3.5-.7.8-1.3,1s-1.2,0-1.7-.2c-.4-.2-.7-.6-.9-1-.4-1.2-1-2.2-1.6-3s-1.5-1.6-2.7-2.3c-.8-.5-1.6-.8-2.5-.9-.8-.1-1.6-.1-2.2,0-.7.2-1.2.5-1.5,1.1-.4.7-.5,1.3-.4,2s.5,1.4,1.1,2.2c.6.8,1.5,1.6,2.7,2.5,1.1.9,2,1.7,2.6,2.6.7.9,1.2,1.8,1.4,2.7.3.9.3,1.8.2,2.8,0,.9-.5,1.9-1,2.8-.8,1.4-1.9,2.4-3.2,3s-2.8.8-4.3.6c-1.6-.2-3.1-.7-4.6-1.6-1.4-.8-2.6-1.8-3.6-3-1-1.1-1.6-2.3-2-3.4-.3-.9-.3-1.6,0-2.3.3-.5.7-.8,1.3-1s1.2-.1,1.7.2c.3.2.6.5.7.8.2.5.5,1.1.9,1.7s.9,1.2,1.5,1.8c.5.6,1.1,1,1.7,1.4.9.5,1.8.9,2.6,1s1.5,0,2-.1c.6-.2,1-.6,1.3-1.2.4-.7.5-1.3.4-2,0-.6-.5-1.3-1.1-2s-1.3-1.4-2.2-2.2c-1.2-1-2.2-2-3-2.9s-1.4-1.8-1.7-2.7c-.4-.9-.5-1.8-.3-2.8,0-1,.5-2,1.2-3.1.8-1.4,1.9-2.4,3.3-3,1.4-.6,2.9-.8,4.5-.6,1.6.2,3.1.7,4.6,1.6h0Z"/>
    <path class="cls-2" d="M316.8,402.5c-1.5-.9-2.7-2.1-3.4-3.6-.8-1.5-1.1-3.1-1-4.9,0-1.8.6-3.6,1.7-5.3,1-1.8,2.3-3.2,3.8-4.1,1.5-1,3.1-1.5,4.7-1.5s3.2.3,4.7,1.2c.9.5,1.6,1.1,2.2,1.9s1.1,1.5,1.4,2.3c.3.8.5,1.5.6,2.1,0,.6,0,1.1-.2,1.4l-1.3-.2,5-8.6c.3-.6.8-.9,1.4-1.1.6-.2,1.2,0,1.7.2.6.3.9.8,1.1,1.4.2.6,0,1.2-.3,1.8l-11.8,20.1c-.3.6-.8.9-1.4,1.1-.6.2-1.2,0-1.7-.3-.6-.3-.9-.8-1.1-1.4,0-.6,0-1.2.3-1.8l.9-1.6.4.6c-.2.3-.5.5-1.1.8-.5.2-1.2.4-2,.5h-2.4c-.8,0-1.6-.4-2.4-.9h.2ZM319.4,399.1c1,.6,1.9.8,2.9.8s1.9-.4,2.8-1c.9-.6,1.6-1.4,2.2-2.5.6-1,.9-2.1,1-3.2,0-1.1,0-2.1-.5-3-.4-.9-1.1-1.6-2.1-2.2s-1.9-.8-2.9-.7c-1,0-1.9.4-2.8,1-.9.6-1.6,1.4-2.2,2.5-.6,1-1,2.1-1,3.2s0,2,.5,2.9,1.1,1.6,2.1,2.2h0Z"/>
    <path class="cls-2" d="M302.5,396.5c.7.4,1.2.9,1.4,1.3s0,.9-.3,1.5l-.4.6c-.4.6-.8,1-1.3,1s-1.1-.2-1.8-.6c-.8-.4-1.2-.9-1.4-1.3s0-.9.3-1.5l.4-.6c.4-.6.8-1,1.2-1s1.1.2,1.8.6h0ZM310.8,377.7c.3-.6.8-.9,1.4-1.1.6-.2,1.2,0,1.7.2.6.3.9.8,1.1,1.4,0,.6,0,1.2-.3,1.8l-7.9,13.5c-.3.6-.8.9-1.4,1.1-.6.2-1.2,0-1.7-.3-.6-.3-.9-.8-1.1-1.4,0-.6,0-1.2.3-1.8l7.9-13.5h0Z"/>
    <path class="cls-2" d="M288.1,385.7c-1.6-.9-2.7-2-3.1-3.2-.4-1.2-.5-2.4-.2-3.7.3-1.3.9-2.7,1.7-4l4.9-8.4c.3-.6.8-.9,1.4-1.1.6-.2,1.2,0,1.7.3.6.3.9.8,1.1,1.4,0,.6,0,1.2-.3,1.8l-4.9,8.4c-.4.7-.7,1.4-.9,2.1s0,1.3.2,2c.3.6.9,1.2,1.8,1.7.9.5,1.7.8,2.5.8s1.5-.2,2.2-.6,1.2-1,1.6-1.7l4.9-8.4c.3-.6.8-.9,1.4-1.1.6-.2,1.2,0,1.7.2.6.3.9.8,1.1,1.4,0,.6,0,1.2-.3,1.8l-7.9,13.5c-.3.6-.8.9-1.4,1.1-.6.2-1.2,0-1.7-.2s-.9-.8-1.1-1.4c0-.6,0-1.2.3-1.8l.8-1.4.4.4c-.4.3-.9.5-1.6.7-.6.2-1.3.4-2,.4h-2.2c-.8-.1-1.5-.4-2.3-.9h.2Z"/>
    <path class="cls-2" d="M260,369.2l16.8-12.5c.4-.3.8-.5,1.3-.6s.9,0,1.2.3c.6.3.9.8,1,1.3,0,.5,0,1-.3,1.5,0,.2-.3.4-.5.6l-19.6,14.8c-.4.3-.9.5-1.4.5s-.9,0-1.3-.4c-.4-.2-.7-.6-.9-1s-.3-.9-.2-1.4l3.2-23.9c0-.3.2-.6.3-.9.3-.6.8-.9,1.4-1.1.6-.1,1.1,0,1.6.2.4.2.7.6.9,1s.2.9.2,1.4l-2.6,20.6-1.1-.4h0ZM273.5,360.1l-4,2.7-8.9-5.2,1.6-4.1,11.3,6.6h0Z"/>
    <path class="cls-2" d="M240.5,357.9c-.9-.5-1.7-1.2-2.3-1.9-.6-.7-1-1.5-1.4-2.2-.3-.8-.5-1.5-.5-2.1s0-1.1.2-1.4h1.1l-1.4,2.5c-.3.6-.8.9-1.4,1.1-.6.2-1.2,0-1.7-.3-.6-.3-.9-.8-1.1-1.4-.2-.6,0-1.2.3-1.8l8.5-14.6c1.1-1.9,2.4-3.2,3.9-3.9s3.1-.9,4.7-.6c1.6.3,3.2.8,4.7,1.7.4.3,1,.6,1.6,1.2.6.5,1.2,1,1.8,1.6.5.5.9.9,1.2,1.3.5.7.7,1.3.7,1.9s-.2,1.1-.6,1.4c-.6.5-1.1.8-1.7.7-.6,0-1-.3-1.4-.7s-.5-.5-.9-1-.8-1-1.3-1.5-1-.9-1.4-1.2c-1.6-1-3-1.3-4.2-1.1-1.2.2-2.1.9-2.8,2l-1.7,2.9-.2-.5c.2-.3.5-.5,1-.8.5-.2,1.2-.4,1.9-.5s1.5,0,2.4,0c.9.1,1.7.4,2.5.9,1.6.9,2.7,2.1,3.5,3.6s1.2,3.2,1.1,4.9c0,1.8-.6,3.6-1.7,5.3-1,1.8-2.3,3.2-3.9,4.1-1.5.9-3.1,1.4-4.8,1.5-1.7,0-3.3-.4-4.8-1.2h.1ZM242,353.9c1,.6,2,.8,3,.8s2-.4,2.9-1,1.7-1.4,2.3-2.5c.6-1,.9-2.1,1-3.2,0-1.1,0-2.1-.6-3s-1.2-1.7-2.2-2.2c-1-.6-2-.9-3-.8-1,0-2,.4-2.9,1s-1.7,1.4-2.3,2.4-1,2.1-1,3.2,0,2.1.6,3,1.2,1.7,2.2,2.3h0Z"/>
    <path class="cls-2" d="M212.5,341.5c-.6-.3-.9-.8-1.1-1.4-.2-.6,0-1.2.3-1.8l8.1-13.9c.3-.6.8-.9,1.4-1.1.6-.2,1.2,0,1.7.3.6.3.9.8,1.1,1.4,0,.6,0,1.2-.3,1.8l-.9,1.6-.5-.7c.2-.3.5-.5,1.1-.8.5-.2,1.2-.4,1.9-.5h2.4c.9.1,1.7.5,2.6.9,1.5.9,2.6,2.1,3.4,3.6.8,1.5,1.1,3.1,1,4.9,0,1.8-.6,3.6-1.7,5.3-1,1.8-2.3,3.2-3.8,4.1-1.5,1-3.1,1.5-4.8,1.5s-3.2-.3-4.7-1.2c-.9-.5-1.7-1.2-2.3-1.9-.6-.7-1.1-1.5-1.4-2.3-.3-.8-.5-1.5-.6-2.1,0-.6,0-1.1.2-1.4l1.4.3-1.4,2.4c-.3.6-.8.9-1.4,1.1-.6.2-1.2,0-1.7-.3v.2ZM227.7,330.8c-1-.6-1.9-.8-2.9-.8s-1.9.4-2.8,1c-.9.6-1.6,1.4-2.2,2.4-.6,1-1,2.1-1,3.2s0,2.1.5,3c.4.9,1.1,1.6,2.1,2.2.9.5,1.9.8,2.9.7,1,0,2-.4,2.8-1,.9-.6,1.6-1.4,2.3-2.5.6-1,.9-2.1,1-3.1,0-1.1,0-2.1-.5-3-.4-.9-1.1-1.6-2.1-2.2h0Z"/>
    <path class="cls-2" d="M203.5,338.7c.7.4,1.2.9,1.4,1.3s0,.9-.3,1.5l-.4.6c-.4.6-.8,1-1.3,1s-1.1-.2-1.8-.6c-.8-.4-1.2-.9-1.4-1.3s0-.9.3-1.5l.4-.6c.4-.6.8-1,1.2-1s1.1.2,1.8.6h0ZM211.8,319.8c.3-.6.8-.9,1.4-1.1.6-.2,1.2,0,1.7.2.6.3.9.8,1.1,1.4,0,.6,0,1.2-.3,1.8l-7.9,13.5c-.3.6-.8.9-1.4,1.1-.6.2-1.2,0-1.7-.3-.6-.3-.9-.8-1.1-1.4,0-.6,0-1.2.3-1.8l7.9-13.5h0Z"/>
    <path class="cls-2" d="M189.1,327.9c-1.6-.9-2.7-2-3.1-3.2-.4-1.2-.5-2.4-.2-3.7.3-1.3.9-2.7,1.7-4l4.9-8.4c.3-.6.8-.9,1.4-1.1.6-.2,1.2,0,1.7.3.6.3.9.8,1.1,1.4,0,.6,0,1.2-.3,1.8l-4.9,8.4c-.4.7-.7,1.4-.9,2.1s0,1.3.2,2c.3.6.9,1.2,1.8,1.7.9.5,1.7.8,2.5.8s1.5-.2,2.2-.6,1.2-1,1.6-1.7l4.9-8.4c.3-.6.8-.9,1.4-1.1.6-.2,1.2,0,1.7.2.6.3.9.8,1.1,1.4,0,.6,0,1.2-.3,1.8l-7.9,13.5c-.3.6-.8.9-1.4,1.1-.6.2-1.2,0-1.7-.3-.6-.3-.9-.8-1.1-1.4,0-.6,0-1.2.3-1.8l.8-1.4.4.4c-.4.3-.9.5-1.6.7-.6.2-1.3.4-2,.4h-2.2c-.8-.1-1.5-.4-2.3-.9h.2Z"/>
  </g>
  <g>
    <path class="cls-2" d="M270.3,475.7c1.7,0,3.3.4,4.7,1.1s2.6,1.7,3.5,3c1,1.3,1.7,2.7,2.2,4.2.5,1.6.8,3.2.8,4.9s0,2.4-.4,3.9c-.2,1.5-.7,3.1-1.3,4.8s-1.5,3.3-2.6,4.9c-1.1,1.6-2.5,3-4.2,4.3s-3.7,2.2-6.2,2.9c-.4,0-.8,0-1.1,0-.7,0-1.4-.2-2-.6-.6-.4-.9-1.1-.9-2.1s.2-1.3.7-1.8,1.1-.9,1.9-1.1c1.1-.3,2.2-.8,3.2-1.4,1.1-.6,2.1-1.4,3-2.3.9-.9,1.7-1.9,2.4-3s1.1-2.4,1.4-3.7h1.3c-.5.6-1,1.2-1.7,1.8s-1.5,1.2-2.4,1.6c-.9.5-2.1.7-3.3.7s-2.5-.3-3.7-.9c-1.2-.6-2.3-1.4-3.3-2.4s-1.8-2.2-2.4-3.6c-.6-1.4-.9-2.8-.9-4.3s.5-3.9,1.5-5.6c1-1.7,2.4-3,4.1-4,1.7-1,3.6-1.5,5.6-1.5h.1ZM270.3,481c-1,0-1.9.2-2.8.8-.8.5-1.5,1.2-2,2.1-.5.9-.7,1.9-.7,3s.2,2.1.7,3,1.1,1.6,1.9,2.1c.8.5,1.7.8,2.8.8s1.9-.2,2.8-.8c.8-.5,1.5-1.2,2-2.1.5-.9.7-1.9.7-3s-.2-2.1-.7-3-1.1-1.6-1.9-2.1c-.8-.5-1.7-.8-2.8-.8h0Z"/>
    <path class="cls-2" d="M242.7,475.6c2.8,0,5.1.8,7,2.2,1.9,1.5,3.3,3.5,4.3,6.1s1.5,5.6,1.4,9c0,3.4-.5,6.4-1.5,9s-2.5,4.6-4.4,6-4.2,2.2-7,2.1c-2.8,0-5.1-.8-7-2.2-1.9-1.5-3.3-3.5-4.3-6.1s-1.5-5.6-1.4-9c0-3.4.5-6.4,1.5-9,1-2.6,2.5-4.6,4.4-6.1,1.9-1.4,4.2-2.2,7-2.1h0ZM242.7,481.3c-1.3,0-2.5.4-3.5,1.3-1,.8-1.7,2.1-2.3,3.8s-.8,3.8-.8,6.4.2,4.7.8,6.4c.5,1.7,1.3,3,2.3,3.8,1,.9,2.1,1.3,3.5,1.3s2.5-.4,3.5-1.3c1-.8,1.8-2.1,2.3-3.8.6-1.7.8-3.8.8-6.4s-.2-4.7-.8-6.4c-.5-1.7-1.3-3-2.3-3.9-1-.9-2.1-1.3-3.4-1.3h0Z"/>
    <path class="cls-2" d="M213.2,475.4c2.8,0,5.1.8,7,2.2,1.9,1.5,3.3,3.5,4.3,6.1,1,2.6,1.5,5.6,1.4,9,0,3.4-.5,6.4-1.5,9s-2.5,4.6-4.4,6-4.2,2.2-7,2.1c-2.8,0-5.1-.8-7-2.2-1.9-1.5-3.3-3.5-4.3-6.1s-1.5-5.6-1.4-9c0-3.4.5-6.4,1.5-9,1-2.6,2.5-4.6,4.4-6.1,1.9-1.4,4.2-2.2,7-2.1h0ZM213.2,481.2c-1.3,0-2.5.4-3.5,1.3-1,.8-1.7,2.1-2.3,3.8s-.8,3.8-.8,6.4.2,4.7.8,6.4c.5,1.7,1.3,3,2.3,3.8,1,.9,2.1,1.3,3.5,1.3s2.5-.4,3.5-1.3c1-.8,1.8-2.1,2.3-3.8.6-1.7.8-3.8.8-6.4s-.2-4.7-.8-6.4c-.5-1.7-1.3-3-2.3-3.9-1-.9-2.1-1.3-3.4-1.3h0Z"/>
  </g>
  <g>
    <path class="cls-2" d="M277.1,576.3c.7-.4,1.4-.5,2.2-.3s1.3.7,1.7,1.4l11.2,19.6-1,.3,2.4-14.6.5.4-14.8,8.4c-.7.4-1.4.5-2,.3s-1.2-.6-1.6-1.3c-.4-.6-.4-1.3-.2-2s.6-1.2,1.3-1.6l18.2-10.4c.6-.3,1.3-.4,2.1-.3.8.2,1.4.6,1.8,1.3.3.6.5,1.3.3,2l-4,23.7c0,.4-.2.8-.5,1.2s-.6.7-1.1,1c-.7.4-1.5.5-2.2.3s-1.3-.7-1.7-1.4l-13.7-24.1c-.4-.7-.5-1.5-.3-2.2.2-.8.7-1.4,1.4-1.8h0Z"/>
    <path class="cls-2" d="M258.5,586.3c1-.6,2.2-1.1,3.6-1.4,1.3-.3,2.6-.4,3.7-.2.5,0,1,.3,1.5.7s.9.8,1.1,1.2c.3.5.3,1,.2,1.7-.2.6-.6,1.2-1.4,1.6-.5.3-1.3.4-2.3.3h-1.9c-.7,0-1.3.3-1.8.6-1.3.8-2.3,1.7-3,2.7s-1.1,2.1-1.1,3.3.3,2.3.9,3.5c.6,1.1,1.4,1.8,2.3,2.3.9.5,1.9.7,2.9.7s2-.3,2.9-.8,1.5-1.1,2-1.7c.5-.6.9-1.3,1.3-1.9.4-.6.8-1,1.3-1.3.9-.5,1.7-.7,2.4-.6.7,0,1.2.5,1.7,1,.4.5.7,1,.9,1.5l4.5,10.9c.2.6.2,1.3,0,1.9s-.7,1.1-1.3,1.5l-12,6.9c-.7.4-1.4.5-2,.3-.7-.2-1.2-.6-1.6-1.3-.4-.6-.4-1.3-.2-2s.6-1.2,1.3-1.6l10.8-6.1-.2.6-3.7-9.1,1.4,1.3c0,.4-.2.8-.6,1.4-.4.6-.9,1.1-1.5,1.7-.6.6-1.3,1.1-2,1.5-1.9,1.1-3.8,1.6-5.7,1.6s-3.8-.5-5.5-1.5-3-2.4-4.1-4.2c-1.2-2.1-1.8-4.2-1.7-6.3s.7-4.1,1.9-5.9c1.2-1.8,3-3.4,5.3-4.7h-.3Z"/>
    <path class="cls-2" d="M231.7,601.6c2.4-1.4,4.8-1.9,7.1-1.6,2.4.3,4.6,1.4,6.8,3.1,2.2,1.8,4.1,4.1,5.8,7.1s2.8,5.8,3.2,8.6c.4,2.7.2,5.2-.8,7.4s-2.6,4-5,5.4-4.8,1.9-7.1,1.6c-2.4-.3-4.6-1.4-6.8-3.1-2.1-1.8-4.1-4.1-5.8-7.1-1.7-2.9-2.7-5.8-3.2-8.6-.4-2.8-.2-5.2.8-7.4s2.6-4,5-5.4ZM234.6,606.6c-1.2.7-2,1.6-2.4,2.8s-.5,2.7,0,4.5,1.2,3.7,2.5,6,2.6,4,3.9,5.2c1.3,1.2,2.6,1.9,3.9,2.2,1.3.3,2.5,0,3.7-.6,1.1-.6,1.9-1.6,2.4-2.8.4-1.2.5-2.7,0-4.5-.4-1.7-1.2-3.7-2.5-6-1.3-2.2-2.6-3.9-3.9-5.2-1.3-1.2-2.6-1.9-3.9-2.2-1.3-.2-2.5,0-3.6.6h-.2Z"/>
  </g>
  <g>
    <path class="cls-2" d="M357.4,665.5c-.4.7-.9,1.1-1.6,1.3-.7.2-1.4,0-2-.3-.6-.4-1-.9-1.2-1.6-.2-.7,0-1.4.3-2l8.2-14.1c.4-.7,1-1.2,1.7-1.3.7-.2,1.4,0,2.1.4.7.4,1.2,1,1.4,1.8l4.4,14.7c.5,1.7,1.2,3.1,2,4.4.8,1.3,1.6,2.2,2.5,2.7,1.4.8,2.7,1.1,4,.7,1.3-.3,2.4-1.1,3.1-2.5.3-.5.5-1.1.6-1.8,0-.7,0-1.4,0-2.2s-.4-1.5-.7-2.3c-.2-.6-.3-1.1-.2-1.5,0-.4.2-.7.4-1,.4-.6.9-1,1.7-1.3.8-.2,1.4-.2,2,.2.5.3.8.7,1.1,1.3s.5,1.2.7,2c.3,1.1.4,2.2.5,3.4,0,1.2,0,2.3-.3,3.4s-.6,2-1.1,2.9c-1.1,1.9-2.4,3.2-3.9,4.2-1.5.9-3.2,1.4-5,1.4s-3.6-.6-5.4-1.7c-1.5-.9-2.9-2.3-4.3-4.3-1.3-2-2.4-4.2-3.1-6.7l-2.7-9.1.6-.2-5.4,9.3-.3-.2Z"/>
    <path class="cls-2" d="M342.3,679.9c1.4-2.4,3.2-4,5.4-4.9s4.7-1.1,7.5-.7c2.8.5,5.6,1.5,8.5,3.3,3,1.7,5.3,3.7,7,5.8,1.7,2.2,2.8,4.4,3.1,6.8.3,2.4-.2,4.8-1.6,7.1-1.4,2.4-3.2,4-5.4,4.9s-4.7,1.1-7.4.7c-2.7-.5-5.6-1.5-8.5-3.3-2.9-1.7-5.3-3.7-7-5.8-1.8-2.2-2.8-4.4-3.1-6.8-.3-2.4.2-4.8,1.6-7.1h0ZM347.3,682.8c-.7,1.2-.9,2.4-.7,3.6.2,1.3,1,2.6,2.2,3.9,1.2,1.3,2.9,2.6,5.1,3.9,2.2,1.3,4.2,2.2,6,2.5,1.7.4,3.2.4,4.4,0s2.2-1.2,2.9-2.4c.7-1.1.9-2.3.6-3.6-.2-1.3-.9-2.6-2.1-3.9-1.2-1.3-2.9-2.6-5.1-4-2.2-1.3-4.2-2.1-5.9-2.5-1.8-.4-3.2-.4-4.5,0-1.2.4-2.2,1.2-2.8,2.3v.2Z"/>
    <path class="cls-2" d="M327.5,705.4c1.4-2.4,3.2-4,5.4-4.9s4.7-1.1,7.5-.7c2.8.5,5.6,1.5,8.5,3.3,3,1.7,5.3,3.7,7,5.8,1.7,2.2,2.8,4.4,3.1,6.8.3,2.4-.2,4.8-1.6,7.1-1.4,2.4-3.2,4-5.4,4.9s-4.7,1.1-7.4.7c-2.7-.5-5.6-1.5-8.5-3.3-2.9-1.7-5.3-3.7-7-5.8-1.8-2.2-2.8-4.4-3.1-6.8-.3-2.4.2-4.8,1.6-7.1h0ZM332.4,708.3c-.7,1.2-.9,2.4-.7,3.6.2,1.3,1,2.6,2.2,3.9,1.2,1.3,2.9,2.6,5.1,3.9,2.2,1.3,4.2,2.2,6,2.5,1.7.4,3.2.4,4.4,0s2.2-1.2,2.9-2.4c.7-1.1.9-2.3.6-3.6-.2-1.3-.9-2.6-2.1-3.9-1.2-1.3-2.9-2.6-5.1-4-2.2-1.3-4.2-2.1-5.9-2.5-1.8-.4-3.2-.4-4.5,0-1.2.4-2.2,1.2-2.8,2.3v.2Z"/>
  </g>
  <g>
    <path class="cls-2" d="M467.2,685.6c0-1.2.3-2.4.8-3.8.4-1.3,1-2.4,1.8-3.2s.8-.7,1.4-.9c.6-.2,1.1-.3,1.6-.3s1,.3,1.5.8.7,1.2.6,2c0,.6-.4,1.3-1,2.1-.3.5-.7,1-1,1.6s-.4,1.2-.5,1.8c0,1.5,0,2.9.6,4s1.2,2.1,2.2,2.7c1,.7,2.1,1,3.5,1.1,1.2,0,2.3-.2,3.2-.7s1.6-1.2,2.1-2.1c.5-.9.8-1.9.9-2.9,0-1,0-1.9-.3-2.6-.3-.8-.6-1.4-.9-2.1-.3-.6-.4-1.2-.4-1.8,0-1.1.3-1.8.8-2.3s1.1-.8,1.7-.9h1.7l11.6,2.1c.7.2,1.2.5,1.6,1.1.4.6.6,1.2.5,1.9l-.7,13.9c0,.8-.3,1.4-.9,1.9-.5.5-1.2.7-2,.7s-1.3-.3-1.8-.9c-.5-.5-.7-1.2-.6-2l.7-12.4.4.6-9.7-1.8,1.9-.5c.3.2.6.6.8,1.3.3.7.5,1.4.6,2.2.2.8.2,1.7.2,2.5,0,2.1-.7,4-1.8,5.7-1.1,1.6-2.5,2.9-4.2,3.8-1.7.9-3.6,1.3-5.8,1.2-2.4,0-4.5-.8-6.2-2s-3-2.8-3.9-4.8-1.2-4.4-1.1-7.1h.1Z"/>
    <path class="cls-2" d="M465.5,716.3c0-2.7,1-5,2.5-6.9,1.6-1.8,3.7-3.2,6.3-4,2.7-.9,5.7-1.2,9.1-1,3.4.2,6.4.8,8.9,2,2.5,1.1,4.5,2.7,5.8,4.7,1.4,2,2,4.3,1.8,7.1,0,2.7-1,5-2.6,6.9-1.6,1.8-3.7,3.2-6.3,4-2.6.9-5.7,1.2-9.1,1-3.4-.2-6.4-.8-8.9-2-2.6-1.1-4.5-2.7-5.9-4.7s-2-4.3-1.8-7.1h.2ZM471.3,716.6c0,1.3.3,2.5,1.1,3.5s2,1.8,3.7,2.5,3.8,1,6.4,1.2c2.6,0,4.7,0,6.5-.5s3-1.1,3.9-2.1c.9-.9,1.4-2.1,1.5-3.4,0-1.3-.3-2.5-1.1-3.5s-2-1.9-3.7-2.5-3.8-1-6.4-1.2c-2.6,0-4.7,0-6.4.5s-3.1,1.2-4,2.1c-.9.9-1.4,2.1-1.5,3.4Z"/>
    <path class="cls-2" d="M464,745.8c0-2.8,1-5,2.5-6.9,1.6-1.8,3.7-3.2,6.3-4,2.7-.9,5.7-1.2,9.1-1,3.4.2,6.4.8,8.9,2,2.5,1.1,4.5,2.7,5.8,4.7,1.4,2,2,4.3,1.8,7.1,0,2.7-1,5-2.6,6.9-1.6,1.8-3.7,3.2-6.3,4-2.6.9-5.7,1.2-9.1,1-3.4-.2-6.4-.8-8.9-2-2.6-1.1-4.5-2.7-5.9-4.7s-2-4.3-1.8-7.1h.2ZM469.7,746.1c0,1.3.3,2.5,1.1,3.5s2,1.8,3.7,2.5,3.8,1,6.4,1.2c2.6,0,4.7,0,6.5-.5,1.7-.5,3-1.1,3.9-2.1.9-.9,1.4-2.1,1.5-3.4,0-1.3-.3-2.5-1.1-3.5s-2-1.9-3.7-2.5-3.8-1-6.4-1.2c-2.6,0-4.7,0-6.4.5s-3.1,1.2-4,2.1c-.9.9-1.4,2.1-1.5,3.4Z"/>
  </g>
  <g>
    <path class="cls-2" d="M563.8,599.5c.9,1.6,1.5,3.1,1.6,4.7,0,1.6,0,3.1-.6,4.6s-1.4,2.8-2.5,4.1c-1.1,1.2-2.5,2.3-4,3.3-2.1,1.3-4.3,2-6.4,2.3-2.2.3-4.2,0-6.1-.9-1.9-.8-3.5-2.3-4.7-4.4l-4.6-7.8c-.3-.6-.4-1.2-.3-1.8.2-.6.5-1.1,1.1-1.4l18.9-11.2c.6-.3,1.2-.4,1.8-.3.6.2,1.1.5,1.4,1.1l4.6,7.8h-.2ZM544.5,610.6c.8,1.4,1.8,2.3,3.1,2.7,1.2.4,2.5.5,3.9.2s2.8-.8,4.2-1.7c1-.6,1.9-1.3,2.7-2.1.8-.8,1.4-1.6,1.8-2.5s.6-1.8.6-2.8-.3-2-1-3l-3.4-5.7.5.2-16,9.5.2-.4,3.3,5.6h.1Z"/>
    <path class="cls-2" d="M567.6,638.1c-1.8,1.1-3.6,1.6-5.4,1.6s-3.5-.4-5.1-1.3c-1.6-.9-2.8-2.2-3.8-3.8-1-1.7-1.5-3.4-1.5-5.2s.4-3.5,1.3-5.1,2.2-2.9,4-4,3.6-1.6,5.4-1.6,3.5.4,5.1,1.3c1.6.9,2.8,2.1,3.8,3.8s1.5,3.4,1.5,5.2-.4,3.5-1.3,5.1-2.2,2.9-4,4ZM565.3,634.2c1.1-.7,1.9-1.5,2.5-2.4.5-.9.8-1.9.8-2.9s-.3-2-.8-2.9-1.3-1.6-2.2-2.1c-.9-.5-1.9-.7-3-.7s-2.2.4-3.3,1.1c-1.1.6-1.9,1.4-2.5,2.4-.6.9-.8,1.9-.8,2.9s.3,2,.8,2.9,1.3,1.6,2.2,2.1c.9.5,1.9.7,3,.7s2.2-.4,3.3-1h0Z"/>
    <path class="cls-2" d="M586.1,649.3c.3.6.4,1.1.3,1.7-.2.6-.5,1.1-1.1,1.4l-8.3,4.9c-2.3,1.4-4.5,1.8-6.6,1.3s-3.9-1.9-5.3-4.3c-1.4-2.4-1.9-4.7-1.3-6.7.6-2.1,2-3.8,4.3-5.2l8.3-4.9c.6-.3,1.1-.4,1.8-.3.6,0,1.1.5,1.4,1.1s.4,1.1.3,1.7c-.2.6-.5,1.1-1.1,1.4l-8.3,4.9c-1.3.8-2.1,1.7-2.4,2.6-.3,1,0,2,.6,3.2.7,1.2,1.6,1.9,2.6,2.1,1,.2,2.2,0,3.5-.9l8.3-4.9c.6-.3,1.1-.4,1.8-.3.6,0,1.1.5,1.4,1.1h-.2Z"/>
    <path class="cls-2" d="M595.5,664.3c.9,1.5,1.3,3.1,1.3,4.8s-.5,3.3-1.5,4.8c-.9,1.5-2.3,2.8-4.1,3.9-1.8,1.1-3.6,1.6-5.3,1.8-1.8,0-3.4-.2-4.9-.9s-2.7-1.8-3.5-3.3c-.5-.9-.9-1.8-1-2.7-.2-.9-.2-1.8,0-2.6,0-.8.3-1.5.5-2.1s.5-1,.8-1.1l1,.8-2.4,1.4c-.6.3-1.1.4-1.8.3-.6,0-1.1-.5-1.4-1.1s-.4-1.1-.3-1.7c0-.6.5-1.1,1.1-1.4l20.5-12.2c.6-.3,1.1-.4,1.8-.3.6,0,1.1.5,1.4,1.1s.4,1.1.3,1.7c-.2.6-.5,1.1-1.1,1.4l-8.3,4.9v-.7c.2-.2.7-.2,1.3-.2s1.2.2,1.9.5c.7.3,1.4.7,2.1,1.2s1.2,1.2,1.7,1.9v-.2ZM591.7,666c-.6-1-1.3-1.7-2.2-2.1-.9-.4-1.9-.6-2.9-.5-1.1,0-2.1.4-3.1,1.1-1,.6-1.8,1.4-2.4,2.3-.6.9-.9,1.9-1,2.9s.2,2,.8,2.9c.6,1,1.3,1.6,2.2,2.1.9.4,1.9.6,3,.5,1.1,0,2.1-.5,3.2-1.1,1-.6,1.9-1.4,2.4-2.3.6-.9.9-1.8,1-2.8,0-1-.2-2-.8-2.9h-.2Z"/>
    <path class="cls-2" d="M589.1,689.4c-.6.3-1.2.4-1.8.3-.6-.2-1.1-.5-1.4-1.1-.3-.5-.4-1.1-.2-1.7s.5-1.1,1.1-1.4l20.2-12c.6-.3,1.2-.4,1.8-.3.6.2,1.1.5,1.4,1.1s.4,1.1.3,1.7c-.2.6-.5,1-1.1,1.4l-20.2,12h-.1Z"/>
    <path class="cls-2" d="M594.4,703.6c-1.1-1.9-1.7-3.7-1.7-5.5s.4-3.5,1.3-5,2.2-2.8,3.9-3.8c2-1.2,3.9-1.8,5.7-1.8s3.5.4,5,1.2,2.7,2,3.5,3.4c.7,1.1,1.1,2.3,1.2,3.6s0,2.5-.3,3.7-.9,2.4-1.7,3.5c-.8,1.1-1.8,2-2.9,2.7-.5.3-1.1.3-1.6,0-.6-.2-1-.6-1.3-1.1l-7.4-12.5,2.7-2.9,7.1,12-1.1-.3.9-.5c.6-.4,1-1,1.3-1.7s.4-1.4.3-2.2c0-.8-.3-1.5-.7-2.2-.4-.7-.8-1.2-1.4-1.7-.5-.5-1.1-.8-1.8-.9-.7-.2-1.4-.2-2.2,0s-1.8.6-2.9,1.2c-1.2.7-2,1.5-2.5,2.5s-.8,2-.7,3c0,1,.3,2,.8,2.8s.9,1.4,1.3,1.8c.4.4.8.7,1.2.9s.7.4.9.5c.4.3.7.6,1,.9.3.5.4,1,.2,1.5,0,.5-.4.9-.9,1.2-.6.3-1.3.4-2.1,0-.8-.3-1.7-.8-2.7-1.6s-1.8-1.8-2.4-2.8h0Z"/>
    <path class="cls-2" d="M635.4,719.7c.7,1.1,1,2.4.9,3.8,0,1.4-.5,2.7-1.2,4s-1.8,2.3-3.2,3.1c-1.4.8-2.8,1.2-4.2,1.3-1.5,0-2.8-.2-4.1-.8-1.3-.6-2.2-1.5-2.9-2.6l-3.6-6h.8l-6.8,4c-.6.3-1.1.4-1.7.3-.6,0-1.1-.5-1.4-1s-.4-1.1-.2-1.7c.2-.6.5-1,1.1-1.4l18.9-11.2c.6-.3,1.2-.4,1.8-.3.6.2,1.1.5,1.4,1.1l4.4,7.4h0ZM624.5,726.3c.2.4.7.7,1.2.9.6.2,1.2.2,1.9.2s1.4-.3,2-.6c.6-.4,1.1-.9,1.5-1.4.4-.6.6-1.2.7-1.8s0-1.1-.2-1.5l-3.6-6.1h.8l-8.3,5,.3-.7,3.6,6h0Z"/>
    <path class="cls-2" d="M637.3,755c-1.8,1.1-3.6,1.6-5.4,1.6s-3.5-.4-5.1-1.3c-1.6-.9-2.8-2.2-3.8-3.8-1-1.7-1.5-3.4-1.5-5.2s.4-3.5,1.3-5.1,2.2-2.9,4-4,3.6-1.6,5.4-1.6,3.5.4,5.1,1.3c1.6.9,2.8,2.1,3.8,3.8s1.5,3.4,1.5,5.2-.4,3.5-1.3,5.1-2.2,2.9-4,4ZM635,751.1c1.1-.7,1.9-1.5,2.5-2.4.5-.9.8-1.9.8-2.9s-.3-2-.8-2.9-1.3-1.6-2.2-2.1c-.9-.5-1.9-.7-3-.7s-2.2.4-3.3,1.1c-1.1.6-1.9,1.4-2.5,2.4-.6.9-.8,1.9-.8,2.9s.3,2,.8,2.9,1.3,1.6,2.2,2.1c.9.5,1.9.7,3,.7s2.2-.4,3.3-1h0Z"/>
    <path class="cls-2" d="M634.8,766.2c-.6.3-1.1.4-1.8.3s-1.1-.5-1.4-1.1-.4-1.1-.3-1.7.5-1.1,1.1-1.4l13.5-8c.6-.3,1.1-.4,1.8-.3.6,0,1.1.5,1.4,1.1s.4,1.1.3,1.7c-.2.6-.5,1.1-1.1,1.4l-13.5,8ZM651.2,753.7c-.4-.7-.6-1.3-.6-1.8s.4-.9,1-1.2l.6-.4c.6-.4,1.2-.5,1.6-.3s.9.6,1.3,1.3c.5.8.7,1.4.6,1.8,0,.4-.4.9-1,1.2l-.6.4c-.6.4-1.2.5-1.6.3s-.9-.7-1.3-1.4h0Z"/>
    <path class="cls-2" d="M658.6,770.1c1,1.6,1.4,3,1.2,4.3-.2,1.2-.7,2.4-1.7,3.3-.9,1-2.1,1.9-3.5,2.7l-8.4,5c-.6.3-1.2.4-1.8.3-.6,0-1.1-.5-1.4-1.1s-.4-1.1-.3-1.7c.2-.6.5-1.1,1.1-1.4l8.4-5c.7-.4,1.3-.9,1.8-1.4s.7-1.1.8-1.8c0-.7-.2-1.5-.7-2.4s-1.1-1.5-1.8-1.9-1.4-.6-2.2-.5c-.8,0-1.5.3-2.2.7l-8.4,5c-.6.3-1.2.4-1.8.3-.6,0-1.1-.5-1.4-1.1s-.4-1.1-.3-1.7c.2-.6.5-1.1,1.1-1.4l13.5-8c.6-.3,1.1-.4,1.8-.3.6,0,1.1.5,1.4,1.1s.4,1.1.3,1.7c-.2.6-.5,1.1-1.1,1.4l-1.4.8-.2-.5c.5,0,1.1,0,1.7,0s1.3.3,2,.6,1.3.7,1.9,1.2,1.1,1.1,1.6,1.9v-.2Z"/>
    <path class="cls-2" d="M670.3,781.9c.3.6.4,1.1.3,1.7-.2.6-.5,1-1.1,1.4l-14.5,8.7c-.3.2-.5.4-.6.6,0,.2-.2.5,0,.7,0,.3,0,.5.3.7.2.3.3.5.6.6.2.2.4.4.6.7s.2.7,0,1.1c0,.4-.5.8-1,1.1-.6.4-1.3.3-2.1,0s-1.4-1-1.9-1.8c-.3-.5-.5-1-.8-1.6s-.4-1.2-.4-1.9.2-1.3.6-2,1.2-1.4,2.2-2l14.7-8.8c.6-.3,1.2-.4,1.8-.3.6.2,1.1.5,1.4,1.1h0ZM664.1,780.8l4.6,7.7c.3.5.4,1.1.3,1.6s-.5,1-1,1.3-1,.4-1.6.2c-.5,0-1-.5-1.3-1l-4.6-7.7c-.3-.5-.4-1.1-.3-1.6,0-.6.5-1,1-1.3s1-.4,1.6-.2,1,.5,1.3,1Z"/>
    <path class="cls-2" d="M656.9,801.5c.2-.4.5-.7,1-1s1.1-.2,1.7,0,.7.5.9.9c.2.4.2.9,0,1.5-.3,1-.3,2-.3,2.9s.4,1.9,1,2.9c.2.3.5.6.8,1,.3.3.7.6,1.1.7.4,0,1,0,1.5-.3s.8-.7.9-1.2v-1.7c0-.6-.3-1.4-.5-2.1-.2-.8-.4-1.6-.6-2.5-.2-.8-.3-1.7-.2-2.5,0-.8.2-1.6.7-2.3.4-.7,1.1-1.4,2.1-2,1.1-.6,2.2-.9,3.3-.7s2.2.6,3.2,1.3,1.8,1.6,2.4,2.7c.4.7.7,1.4,1,2.3.3.8.4,1.7.5,2.6,0,.9,0,1.7-.4,2.5-.2.4-.5.8-.9,1.1s-1,.4-1.6,0c-.5-.2-.8-.5-1-.9-.2-.5-.3-.9-.2-1.3.3-.7.3-1.4.3-2.2s-.4-1.6-.8-2.4c-.2-.3-.4-.7-.7-1-.3-.3-.7-.6-1.1-.7-.4,0-.9,0-1.4.3s-.8.7-.9,1.2v1.8c0,.7.3,1.4.5,2.1.2.8.4,1.5.6,2.4.2.8.2,1.6.2,2.4s-.3,1.6-.7,2.3c-.4.7-1.1,1.4-2.1,1.9-1.1.7-2.3.9-3.4.7-1.2-.2-2.3-.6-3.2-1.4-1-.7-1.8-1.6-2.4-2.6-.8-1.3-1.3-2.7-1.6-4.3-.3-1.5-.2-3.1.5-4.6h-.2Z"/>
  </g>
  <g>
    <path class="cls-2" d="M674.3,600.8c.7.4,1.1.9,1.3,1.6.2.7,0,1.4-.3,2-.4.6-.9,1-1.6,1.2s-1.4,0-2-.3l-14.1-8.2c-.7-.4-1.2-1-1.3-1.7s0-1.4.4-2.1c.4-.7,1-1.2,1.8-1.4l14.7-4.4c1.7-.5,3.1-1.2,4.4-2s2.2-1.6,2.7-2.5c.8-1.4,1.1-2.7.7-4-.3-1.3-1.1-2.4-2.5-3.1-.5-.3-1.1-.5-1.8-.6-.7,0-1.4,0-2.2,0s-1.5.4-2.3.7c-.6.2-1.1.3-1.5.2-.4,0-.7-.2-1-.4-.6-.4-1-.9-1.3-1.7-.2-.8-.2-1.4.2-2,.3-.5.7-.8,1.3-1.1.6-.3,1.2-.5,2-.7,1.1-.3,2.2-.4,3.4-.5s2.3,0,3.4.3,2,.6,2.9,1.1c1.9,1.1,3.2,2.4,4.2,3.9.9,1.5,1.4,3.2,1.4,5s-.6,3.6-1.7,5.4c-.9,1.5-2.3,2.9-4.3,4.3-2,1.3-4.2,2.4-6.7,3.1l-9.1,2.7-.2-.6,9.3,5.4-.2.3Z"/>
    <path class="cls-2" d="M686,614.3c-1-.6-2-1.4-3-2.4s-1.7-2-2-3.1c-.2-.5-.2-1.1-.2-1.7s.2-1.1.5-1.6.7-.8,1.4-1c.6-.2,1.3,0,2.1.4.5.3,1,.9,1.4,1.9.3.5.6,1.1,1,1.6s.9,1,1.4,1.3c1.3.8,2.6,1.2,3.9,1.3,1.2,0,2.4-.2,3.4-.7s1.9-1.4,2.6-2.6c.6-1,.9-2.1.8-3.1,0-1-.3-2-.9-2.9-.5-.9-1.3-1.6-2.2-2.1-.9-.5-1.7-.8-2.5-.9-.8,0-1.5-.2-2.2-.2s-1.3-.2-1.8-.5c-.9-.5-1.5-1.1-1.7-1.8s-.2-1.3,0-1.9.5-1.1.8-1.5l7.2-9.3c.4-.5,1-.8,1.7-.9s1.3,0,2,.4l12,7c.7.4,1.1.9,1.3,1.6.2.7,0,1.4-.3,2-.4.6-.9,1-1.6,1.2s-1.4,0-2-.3l-10.7-6.2h.7c0,0-6,7.7-6,7.7l.4-1.9c.3-.2.8-.2,1.5-.2s1.5.2,2.3.5c.8.2,1.6.6,2.3,1,1.9,1.1,3.3,2.5,4.2,4.2,1,1.7,1.5,3.5,1.5,5.5s-.5,3.8-1.6,5.6c-1.2,2.1-2.7,3.6-4.6,4.6-1.8,1-3.9,1.4-6.1,1.3s-4.4-.9-6.8-2.3h-.2Z"/>
    <path class="cls-2" d="M712.6,629.9c-2.4-1.4-4-3.2-4.9-5.4s-1.1-4.7-.7-7.5c.5-2.8,1.5-5.6,3.3-8.5,1.7-3,3.7-5.3,5.8-7,2.2-1.7,4.4-2.8,6.8-3,2.4-.3,4.8.2,7.1,1.6,2.4,1.4,4,3.2,4.9,5.4s1.1,4.7.7,7.4c-.5,2.7-1.5,5.6-3.3,8.5-1.7,2.9-3.7,5.3-5.8,7-2.2,1.8-4.4,2.8-6.8,3.1s-4.8-.2-7.1-1.6ZM715.5,624.9c1.2.7,2.4.9,3.6.7,1.3-.2,2.6-1,3.9-2.2s2.6-2.9,3.9-5.1c1.3-2.2,2.2-4.2,2.5-6,.4-1.7.4-3.2,0-4.4s-1.2-2.2-2.4-2.9c-1.1-.7-2.3-.9-3.6-.6-1.3.2-2.6.9-3.9,2.1-1.3,1.2-2.6,2.9-3.9,5.1-1.3,2.2-2.1,4.2-2.5,5.9-.4,1.8-.4,3.2,0,4.5.4,1.2,1.2,2.2,2.3,2.8h0Z"/>
  </g>
  <g>
    <path class="cls-2" d="M685.6,477.2c.3,0,.6,0,.9.1.3,0,.7.3,1.1.6.5.4,1.2.8,1.9,1.1.8.3,1.6.5,2.6.5s1.9-.2,2.8-.7,1.6-1.2,2.2-2.1.9-2,.9-3.3-.2-2.2-.7-3-1.1-1.4-2-1.8c-.8-.4-1.7-.6-2.6-.6s-1.3,0-1.8.2c-.5.1-.9.3-1.3.4s-.9.2-1.5.2-1.3-.3-1.7-.8c-.4-.5-.6-1.1-.6-1.8s0-.8.3-1.2c.2-.4.4-.7.8-1.1l8.5-8.9,1.3,1.1h-11.8c-.8,0-1.4-.3-1.9-.8s-.8-1.2-.8-1.9.3-1.4.8-1.8c.5-.5,1.2-.7,1.9-.7h14.7c1,0,1.7.4,2.2.9s.7,1.2.7,2.1,0,.8-.3,1.2c-.2.4-.5.8-.8,1.1l-8.5,9.1-1.3-1.6c.4-.2.8-.3,1.5-.4.6-.1,1.1-.2,1.6-.2,1.9,0,3.5.5,4.9,1.5s2.5,2.3,3.2,3.8c.7,1.6,1.1,3.2,1.1,5s-.6,4.4-1.6,6.1-2.6,3-4.5,4-4.2,1.4-6.7,1.4-2.4-.2-3.5-.5-2.1-.7-3-1.2c-.7-.4-1.2-.8-1.4-1.3-.2-.5-.4-.9-.4-1.3,0-.7.3-1.4.8-2.1s1.2-1,2-1v-.3Z"/>
    <path class="cls-2" d="M720.7,484.7c-2.8,0-5.1-.8-7-2.2-1.9-1.5-3.3-3.5-4.3-6.1s-1.5-5.6-1.4-9c0-3.4.5-6.4,1.5-9s2.5-4.6,4.4-6,4.2-2.2,7-2.1,5.1.8,7,2.2c1.9,1.5,3.3,3.5,4.3,6.1s1.5,5.6,1.4,9c0,3.4-.5,6.4-1.5,9s-2.5,4.6-4.4,6.1c-1.9,1.4-4.2,2.2-7,2.1h0ZM720.7,478.9c1.3,0,2.5-.4,3.5-1.3,1-.8,1.7-2.1,2.3-3.8.6-1.7.8-3.8.8-6.4s-.2-4.7-.8-6.4c-.5-1.7-1.3-3-2.3-3.8-1-.9-2.1-1.3-3.5-1.3s-2.5.4-3.5,1.3c-1,.8-1.8,2.1-2.3,3.8-.6,1.7-.8,3.8-.8,6.4s.2,4.7.8,6.4c.5,1.7,1.3,3,2.3,3.9s2.1,1.3,3.4,1.3h0Z"/>
    <path class="cls-2" d="M750.2,484.8c-2.8,0-5.1-.8-7-2.2-1.9-1.5-3.3-3.5-4.3-6.1s-1.5-5.6-1.4-9c0-3.4.5-6.4,1.5-9s2.5-4.6,4.4-6,4.2-2.2,7-2.1,5.1.8,7,2.2c1.9,1.5,3.3,3.5,4.3,6.1s1.5,5.6,1.4,9c0,3.4-.5,6.4-1.5,9s-2.5,4.6-4.4,6.1c-1.9,1.4-4.2,2.2-7,2.1h0ZM750.2,479.1c1.3,0,2.5-.4,3.5-1.3,1-.8,1.7-2.1,2.3-3.8.6-1.7.8-3.8.8-6.4s-.2-4.7-.8-6.4c-.5-1.7-1.3-3-2.3-3.8-1-.9-2.1-1.3-3.5-1.3s-2.5.4-3.5,1.3c-1,.8-1.8,2.1-2.3,3.8-.6,1.7-.8,3.8-.8,6.4s.2,4.7.8,6.4c.5,1.7,1.3,3,2.3,3.9s2.1,1.3,3.4,1.3h0Z"/>
  </g>
  <g>
    <path class="cls-2" d="M683.5,372.7c-.7.4-1.4.5-2.2.3-.8-.2-1.3-.7-1.7-1.4l-11.2-19.6,1-.3-2.4,14.6-.5-.4,14.8-8.4c.7-.4,1.3-.5,2-.3s1.2.6,1.6,1.3c.4.6.4,1.3.2,2-.2.7-.6,1.2-1.3,1.6l-18.2,10.4c-.6.3-1.3.4-2.1.3-.8-.2-1.4-.6-1.8-1.3-.3-.6-.5-1.3-.3-2l4-23.7c0-.4.2-.8.5-1.2.3-.4.6-.7,1.1-1,.7-.4,1.5-.5,2.2-.3s1.3.7,1.7,1.4l13.7,24.1c.4.7.5,1.5.3,2.2-.2.8-.7,1.4-1.4,1.8h0Z"/>
    <path class="cls-2" d="M704.8,361.1c-2.4,1.4-4.8,1.9-7.1,1.6-2.4-.3-4.6-1.4-6.8-3.1-2.2-1.8-4.1-4.1-5.8-7.1-1.7-3-2.8-5.8-3.2-8.6-.4-2.7-.2-5.2.8-7.4.9-2.2,2.6-4,5-5.4s4.8-1.9,7.1-1.6c2.4.3,4.6,1.4,6.8,3.1,2.1,1.8,4.1,4.1,5.8,7.1,1.7,2.9,2.7,5.8,3.2,8.6.4,2.8.2,5.2-.8,7.4-.9,2.2-2.6,4-5,5.4ZM702,356.1c1.2-.7,2-1.6,2.4-2.8.4-1.2.5-2.7,0-4.5-.4-1.8-1.2-3.7-2.5-6s-2.6-4-3.9-5.2-2.6-1.9-3.9-2.2c-1.3-.3-2.5,0-3.7.6-1.1.7-1.9,1.6-2.4,2.8-.4,1.2-.5,2.7,0,4.5.4,1.7,1.2,3.7,2.5,6,1.3,2.2,2.6,3.9,3.9,5.2,1.3,1.2,2.6,1.9,3.9,2.2,1.3.2,2.5,0,3.6-.6h.2Z"/>
    <path class="cls-2" d="M730.4,346.5c-2.4,1.4-4.8,1.9-7.1,1.6-2.4-.3-4.6-1.4-6.8-3.1-2.2-1.8-4.1-4.1-5.8-7.1-1.7-3-2.8-5.8-3.2-8.6-.4-2.7-.2-5.2.8-7.4.9-2.2,2.6-4,5-5.4s4.8-1.9,7.1-1.6c2.4.3,4.6,1.4,6.8,3.1,2.1,1.8,4.1,4.1,5.8,7.1,1.7,2.9,2.7,5.8,3.2,8.6.4,2.8.2,5.2-.8,7.4-.9,2.2-2.6,4-5,5.4ZM727.6,341.5c1.2-.7,2-1.6,2.4-2.8.4-1.2.5-2.7,0-4.5-.4-1.8-1.2-3.7-2.5-6s-2.6-4-3.9-5.2-2.6-1.9-3.9-2.2c-1.3-.3-2.5,0-3.7.6-1.1.7-1.9,1.6-2.4,2.8-.4,1.2-.5,2.7,0,4.5.4,1.7,1.2,3.7,2.5,6,1.3,2.2,2.6,3.9,3.9,5.2,1.3,1.2,2.6,1.9,3.9,2.2,1.3.2,2.5,0,3.6-.6h.2Z"/>
  </g>
  <g>
    <path class="cls-2" d="M594.3,299.1c-.6,1-1.4,2-2.4,3s-2,1.7-3.1,2c-.5.2-1.1.2-1.7.2s-1.1-.2-1.6-.5-.8-.7-1-1.4c-.2-.6,0-1.3.4-2.1.3-.5.9-1,1.9-1.4.5-.3,1.1-.6,1.6-1s1-.9,1.3-1.4c.8-1.3,1.2-2.6,1.3-3.9,0-1.2-.2-2.4-.7-3.4s-1.4-1.9-2.6-2.6c-1-.6-2.1-.9-3.1-.8-1,0-2,.3-2.9.9-.9.5-1.6,1.3-2.1,2.2-.5.9-.8,1.7-.9,2.5,0,.8-.2,1.5-.2,2.2s-.2,1.3-.5,1.8c-.5.9-1.1,1.5-1.8,1.7-.7.2-1.3.2-1.9,0s-1.1-.5-1.5-.8l-9.3-7.2c-.5-.4-.8-1-.9-1.7s0-1.3.4-2l7-12c.4-.7.9-1.1,1.6-1.3.7-.2,1.4,0,2,.3.6.4,1,.9,1.2,1.6s0,1.4-.3,2l-6.2,10.7v-.7c0,0,7.7,6,7.7,6l-1.9-.4c-.2-.3-.2-.8-.2-1.5s.2-1.5.5-2.3c.2-.8.6-1.6,1-2.3,1.1-1.9,2.5-3.3,4.2-4.2,1.7-1,3.5-1.5,5.5-1.5s3.8.5,5.6,1.6c2.1,1.2,3.6,2.7,4.6,4.6,1,1.8,1.4,3.9,1.3,6.1-.2,2.2-.9,4.4-2.3,6.8v.2Z"/>
    <path class="cls-2" d="M608.2,275.2c-.6,1-1.4,2-2.4,3s-2,1.7-3.1,2c-.5.2-1.1.2-1.7.2s-1.1-.2-1.6-.5-.8-.7-1-1.4c-.2-.6,0-1.3.4-2.1.3-.5.9-1,1.9-1.4.5-.3,1.1-.6,1.6-1s1-.9,1.3-1.4c.8-1.3,1.2-2.6,1.3-3.9,0-1.2-.2-2.4-.7-3.4s-1.4-1.9-2.6-2.6c-1-.6-2.1-.9-3.1-.8-1,0-2,.3-2.9.9-.9.5-1.6,1.3-2.1,2.2-.5.9-.8,1.7-.9,2.5,0,.8-.2,1.5-.2,2.2s-.2,1.3-.5,1.8c-.5.9-1.1,1.5-1.8,1.7-.7.2-1.3.2-1.9,0s-1.1-.5-1.5-.8l-9.3-7.2c-.5-.4-.8-1-.9-1.7s0-1.3.4-2l7-12c.4-.7.9-1.1,1.6-1.3.7-.2,1.4,0,2,.3.6.4,1,.9,1.2,1.6s0,1.4-.3,2l-6.2,10.7v-.7c0,0,7.7,6,7.7,6l-1.9-.4c-.2-.3-.2-.8-.2-1.5s.2-1.5.5-2.3c.2-.8.6-1.6,1-2.3,1.1-1.9,2.5-3.3,4.2-4.2,1.7-1,3.5-1.5,5.5-1.5s3.8.5,5.6,1.6c2.1,1.2,3.6,2.7,4.6,4.6,1,1.8,1.4,3.9,1.3,6.1-.2,2.2-.9,4.4-2.3,6.8v.2Z"/>
    <path class="cls-2" d="M623.8,248.6c-1.4,2.4-3.2,4-5.4,4.9-2.2.9-4.7,1.1-7.5.7-2.8-.5-5.6-1.5-8.5-3.3-3-1.7-5.3-3.7-7-5.8-1.7-2.2-2.8-4.4-3-6.8-.3-2.4.2-4.8,1.6-7.1,1.4-2.4,3.2-4,5.4-4.9,2.2-.9,4.7-1.1,7.4-.7,2.7.5,5.6,1.5,8.5,3.3,2.9,1.7,5.3,3.7,7,5.8,1.8,2.2,2.8,4.4,3.1,6.8.3,2.4-.2,4.8-1.6,7.1h0ZM618.8,245.7c.7-1.2.9-2.4.7-3.6-.2-1.3-1-2.6-2.2-3.9s-2.9-2.6-5.1-3.9-4.2-2.2-6-2.5c-1.7-.4-3.2-.4-4.4,0-1.2.4-2.2,1.2-2.9,2.4-.7,1.1-.9,2.3-.6,3.6.2,1.3.9,2.6,2.1,3.9s2.9,2.6,5.1,4c2.2,1.3,4.2,2.1,5.9,2.5,1.8.4,3.2.4,4.5,0,1.2-.4,2.2-1.2,2.8-2.3v-.2Z"/>
  </g>
</svg>