<?xml version="1.0" encoding="UTF-8"?>
<svg id="Layer_1" data-name="Layer 1" xmlns="http://www.w3.org/2000/svg" xmlns:xlink="http://www.w3.org/1999/xlink" version="1.1" viewBox="0 0 1920 1080">
  <defs>
    <style>
      .cls-1 {
        fill: none;
      }

      .cls-1, .cls-2 {
        stroke-width: 0px;
      }

      .cls-3 {
        fill: url(#linear-gradient-15);
        stroke: url(#linear-gradient-16);
      }

      .cls-3, .cls-4, .cls-5, .cls-6, .cls-7, .cls-8, .cls-9, .cls-10, .cls-11, .cls-12, .cls-13, .cls-14, .cls-15 {
        stroke-miterlimit: 10;
        stroke-width: 10px;
      }

      .cls-4 {
        fill: url(#linear-gradient-17);
        stroke: url(#linear-gradient-18);
      }

      .cls-5 {
        fill: url(#linear-gradient-11);
        stroke: url(#linear-gradient-12);
      }

      .cls-6 {
        fill: url(#linear-gradient-13);
        stroke: url(#linear-gradient-14);
      }

      .cls-7 {
        fill: url(#linear-gradient-9);
        stroke: url(#linear-gradient-10);
      }

      .cls-2 {
        fill: #000;
      }

      .cls-8 {
        fill: url(#linear-gradient);
        stroke: url(#linear-gradient-2);
      }

      .cls-9 {
        fill: url(#linear-gradient-19);
        stroke: url(#linear-gradient-20);
      }

      .cls-9, .cls-10, .cls-11 {
        fill-rule: evenodd;
      }

      .cls-10 {
        fill: url(#linear-gradient-23);
        stroke: url(#linear-gradient-24);
      }

      .cls-11 {
        fill: url(#linear-gradient-21);
        stroke: url(#linear-gradient-22);
      }

      .cls-12 {
        fill: url(#New_Gradient_Swatch_1);
        stroke: url(#linear-gradient-25);
      }

      .cls-13 {
        fill: url(#linear-gradient-7);
        stroke: url(#linear-gradient-8);
      }

      .cls-14 {
        fill: url(#linear-gradient-3);
        stroke: url(#linear-gradient-4);
      }

      .cls-15 {
        fill: url(#linear-gradient-5);
        stroke: url(#linear-gradient-6);
      }

      .cls-16 {
        display: none;
      }
    </style>
    <linearGradient id="linear-gradient" x1="501.1" y1="339.7" x2="956.9" y2="339.7" gradientUnits="userSpaceOnUse">
      <stop offset="0" stop-color="#000"/>
      <stop offset=".3" stop-color="#e86100"/>
      <stop offset=".6" stop-color="#e86100"/>
      <stop offset="1" stop-color="#000"/>
    </linearGradient>
    <linearGradient id="linear-gradient-2" x1="495" y1="341" x2="973.6" y2="341" gradientUnits="userSpaceOnUse">
      <stop offset="0" stop-color="#462523"/>
      <stop offset="0" stop-color="#fff"/>
      <stop offset="0" stop-color="#462523"/>
      <stop offset=".2" stop-color="#cb9b51"/>
      <stop offset=".5" stop-color="#f6e27a"/>
      <stop offset=".5" stop-color="#f6f2c0"/>
      <stop offset=".6" stop-color="#f6e27a"/>
      <stop offset=".8" stop-color="#cb9b51"/>
      <stop offset="1" stop-color="#462523"/>
    </linearGradient>
    <linearGradient id="linear-gradient-3" x1="624.6" y1="278.8" x2="957.6" y2="278.8" gradientUnits="userSpaceOnUse">
      <stop offset="0" stop-color="#462523"/>
      <stop offset="0" stop-color="#fff"/>
      <stop offset="0" stop-color="#462523"/>
      <stop offset=".2" stop-color="#cb9b51"/>
      <stop offset=".4" stop-color="#f6e27a"/>
      <stop offset=".6" stop-color="#f6e27a"/>
      <stop offset=".8" stop-color="#cb9b51"/>
      <stop offset="1" stop-color="#462523"/>
    </linearGradient>
    <linearGradient id="linear-gradient-4" x1="617.5" y1="284.7" x2="967.2" y2="284.7" xlink:href="#linear-gradient-2"/>
    <linearGradient id="linear-gradient-5" x1="957.5" y1="279.1" x2="1292.3" y2="279.1" xlink:href="#linear-gradient-3"/>
    <linearGradient id="linear-gradient-6" x1="947.8" y1="284.4" x2="1299.4" y2="284.4" xlink:href="#linear-gradient-2"/>
    <linearGradient id="linear-gradient-7" x1="957.5" y1="340.6" x2="1413.9" y2="340.6" xlink:href="#linear-gradient"/>
    <linearGradient id="linear-gradient-8" x1="940.7" y1="341.9" x2="1420.1" y2="341.9" xlink:href="#linear-gradient-2"/>
    <linearGradient id="linear-gradient-9" x1="957.5" y1="674.4" x2="1413.3" y2="674.4" xlink:href="#linear-gradient"/>
    <linearGradient id="linear-gradient-10" x1="940.8" y1="673.1" x2="1419.4" y2="673.1" xlink:href="#linear-gradient-2"/>
    <linearGradient id="linear-gradient-11" x1="957.4" y1="735.2" x2="1290.5" y2="735.2" xlink:href="#linear-gradient-3"/>
    <linearGradient id="linear-gradient-12" x1="947.8" y1="729.9" x2="1302.6" y2="729.9" xlink:href="#linear-gradient-2"/>
    <linearGradient id="linear-gradient-13" x1="622.6" y1="734.9" x2="957.5" y2="734.9" xlink:href="#linear-gradient-3"/>
    <linearGradient id="linear-gradient-14" x1="615.5" y1="735.5" x2="964" y2="735.5" xlink:href="#linear-gradient-2"/>
    <linearGradient id="linear-gradient-15" x1="501.1" y1="673.4" x2="957.5" y2="673.4" xlink:href="#linear-gradient"/>
    <linearGradient id="linear-gradient-16" x1="494.9" y1="673.7" x2="962.5" y2="673.7" xlink:href="#linear-gradient-2"/>
    <linearGradient id="linear-gradient-17" x1="485.2" y1="505.8" x2="957.5" y2="505.8" xlink:href="#linear-gradient-3"/>
    <linearGradient id="linear-gradient-18" x1="480.2" y1="505.8" x2="962.5" y2="505.8" xlink:href="#linear-gradient-2"/>
    <linearGradient id="linear-gradient-19" x1="836.6" y1="270.9" x2="1081" y2="270.9" xlink:href="#linear-gradient"/>
    <linearGradient id="linear-gradient-20" x1="830.5" y1="278" x2="1087.1" y2="278" xlink:href="#linear-gradient-2"/>
    <linearGradient id="linear-gradient-21" x1="834.1" y1="743.1" x2="1078.5" y2="743.1" gradientUnits="userSpaceOnUse">
      <stop offset="0" stop-color="#000"/>
      <stop offset=".3" stop-color="#e86100"/>
      <stop offset=".7" stop-color="#e86100"/>
      <stop offset="1" stop-color="#000"/>
    </linearGradient>
    <linearGradient id="linear-gradient-22" x1="828" y1="743.1" x2="1084.6" y2="743.1" xlink:href="#linear-gradient-2"/>
    <linearGradient id="linear-gradient-23" x1="957.5" y1="508.2" x2="1429.8" y2="508.2" xlink:href="#linear-gradient-3"/>
    <linearGradient id="linear-gradient-24" x1="938.2" y1="508.2" x2="1434.8" y2="508.2" xlink:href="#linear-gradient-2"/>
    <linearGradient id="New_Gradient_Swatch_1" data-name="New Gradient Swatch 1" x1="904.7" y1="514.7" x2="1007.9" y2="514.7" gradientUnits="userSpaceOnUse">
      <stop offset="0" stop-color="#462523"/>
      <stop offset="0" stop-color="#fff"/>
      <stop offset="0" stop-color="#462523"/>
      <stop offset=".2" stop-color="#cb9b51"/>
      <stop offset=".5" stop-color="#f6e27a"/>
      <stop offset=".5" stop-color="#f6f2c0"/>
      <stop offset=".6" stop-color="#f6e27a"/>
      <stop offset=".7" stop-color="#e9cc6d"/>
      <stop offset=".8" stop-color="#cb9b51"/>
      <stop offset="1" stop-color="#462523"/>
    </linearGradient>
    <linearGradient id="linear-gradient-25" x1="899.7" y1="514.7" x2="1012.9" y2="514.7" xlink:href="#linear-gradient-2"/>
  </defs>
  <path class="cls-8" d="M956.9,507.1h0l-455.8-123.4c21.7-79.9,64.2-152.9,122.8-211.4l333,334.8Z"/>
  <path class="cls-14" d="M836.6,50.6l121,456.4-333-334.8c56.7-56.5,128.5-99.3,211.4-121.4l.7-.2h-.1Z"/>
  <path class="cls-15" d="M1292.3,174l-334.8,333,123.4-455.8c79.9,21.7,152.9,64.1,211.4,122.8h0Z"/>
  <path class="cls-13" d="M1413.7,385.4l.2.7-456.4,121h0l334.8-333c56.5,56.7,99.3,128.5,121.4,211.4h0Z"/>
  <path class="cls-7" d="M1413.3,630.4c-21.7,79.9-64.2,152.9-122.8,211.4l-333-334.8,455.8,123.4h0Z"/>
  <path class="cls-5" d="M1290.5,841.8c-56.7,56.5-128.5,99.3-211.4,121.4l-.7.2-121-456.4,333,334.8h0Z"/>
  <path class="cls-6" d="M957.5,507h0l-123.5,455.8c-79.9-21.7-152.9-64.2-211.4-122.8l334.8-333h.1Z"/>
  <path class="cls-3" d="M957.5,507l-334.8,333c-56.5-56.7-99.3-128.5-121.4-211.4l-.2-.7,456.4-121h0Z"/>
  <path class="cls-4" d="M957.5,507l-456.4,121c-22-83.1-20.5-167,.6-244.4l455.8,123.5h0Z"/>
  <path class="cls-9" d="M1081,51.2l-123.4,455.8-121-456.4c83.1-22,167-20.5,244.4.6Z"/>
  <path class="cls-11" d="M957.5,507l121,456.4c-83.1,22-167,20.5-244.4-.6l123.5-455.8h0Z"/>
  <path class="cls-10" d="M1413.9,386c22,83.1,20.5,167-.6,244.4l-455.8-123.4h0l456.4-121h0Z"/>
  <line class="cls-1" x1="957.5" y1="507" x2="957.5" y2="507"/>
  <g>
    <path class="cls-2" d="M980,315.7l-6.4-6.7c2.8-3.6,5-7.9,5.2-12.9.3-5.9-1.5-9.8-5-10-4-.2-6.6,2.8-7.2,15.8l-7.5-.3c.5-10.8-1.9-14.3-5.5-14.4-3.2-.1-5.2,2.5-5.4,7.2-.2,4.3,1.1,7.6,3.5,11.4l-6.8,6.7c-3.4-5.7-5.3-11.8-5-19.1.6-12.5,5.4-20.5,13.5-20.2,4.7.2,7.9,3.9,9.7,10.5h.3c1.8-6.9,5.8-11.7,11.7-11.5,8.5.4,12.8,10.8,12.3,22.9-.4,9.7-3.4,16.4-7.4,20.6h0Z"/>
    <path class="cls-2" d="M964.9,263.6c-15.5-.7-23.1-9.6-22.5-22.5s9-21.1,24.5-20.4c15.5.7,23.5,9.6,23,22.5s-9.3,21.1-24.9,20.4h0ZM966.2,233.8c-12.5-.6-15.5,3-15.7,7.6s2.5,8.5,15,9,15.9-2.9,16.1-7.6-2.9-8.5-15.4-9h0Z"/>
    <path class="cls-2" d="M967.1,213.7c-15.5-.7-23.1-9.6-22.5-22.5s9-21.1,24.5-20.4c15.5.7,23.5,9.6,23,22.5-.6,12.9-9.3,21.1-24.9,20.4h0ZM968.4,183.9c-12.5-.6-15.5,3-15.7,7.6-.2,4.7,2.5,8.5,15,9,12.5.6,15.9-2.9,16.1-7.6.2-4.7-2.9-8.5-15.4-9h0Z"/>
  </g>
  <g>
    <path class="cls-2" d="M1065,323.5c-13.7-10.2-12.9-24.1-5.4-34.3,4.7-6.4,10.3-9.5,14.9-10.8l.7,9.7c-2.6.6-6.1,2.7-8.2,5.5-4.2,5.6-4.2,12.4,5.6,19.7,9.1,6.8,14.6,5,17.6,1,2.5-3.3,2.7-7.4-1.4-10.5-3.9-2.9-7.3-1.3-10.1,2.4-1.9,2.5-2.9,6.1-1.6,10.4l-5.9-3.6c-.9-4.6.8-10.3,3.2-13.4,6.1-8.3,14.3-11.7,22-5.9,7.6,5.7,6.9,16.4.4,25.2-7,9.3-18.9,14.3-31.8,4.7h0Z"/>
    <path class="cls-2" d="M1093.6,283c-12.5-9.3-13.7-20.9-6-31.3,7.7-10.4,19.3-12.5,31.7-3.2,12.5,9.3,14.1,21.2,6.4,31.5-7.7,10.4-19.5,12.2-32,3h0ZM1111.4,259c-10-7.4-14.5-6.2-17.3-2.5-2.8,3.8-2.7,8.4,7.3,15.8s14.8,6.5,17.6,2.7c2.8-3.8,2.4-8.6-7.7-16.1h0Z"/>
    <path class="cls-2" d="M1123.4,242.9c-12.5-9.3-13.7-20.9-6-31.3,7.7-10.4,19.3-12.5,31.7-3.2,12.5,9.3,14.1,21.2,6.4,31.5-7.7,10.4-19.5,12.2-32,3h0ZM1141.2,219c-10-7.4-14.5-6.2-17.3-2.5-2.8,3.8-2.7,8.4,7.3,15.8,10,7.4,14.8,6.5,17.6,2.7,2.8-3.8,2.4-8.6-7.7-16.1h0Z"/>
  </g>
  <g class="cls-16">
    <path class="cls-2" d="M1149.9,414.2l12.2-4.9-9.9-24.5-10.4,4.2-2.5-6.1c5.6-3.3,9.1-6,12.3-9.4l9.5-3.8,13.9,34.5,10.4-4.2,3.2,7.9-35.5,14.4-3.2-7.9v-.2Z"/>
    <path class="cls-2" d="M1187.9,383.1c-5.8-14.4-.9-25,11.1-29.9,12-4.8,22.9-.6,28.8,13.7,5.8,14.4,1,25.4-11,30.2-12,4.8-23.1.3-28.9-14.1h0ZM1215.5,371.9c-4.7-11.6-9.1-12.9-13.5-11.1-4.3,1.8-6.7,5.8-2,17.3,4.7,11.6,9.3,13.2,13.6,11.5,4.3-1.8,6.5-6.2,1.8-17.7h0Z"/>
    <path class="cls-2" d="M1234.2,364.4c-5.8-14.4-.9-25,11.1-29.9,12-4.8,22.9-.6,28.8,13.7,5.8,14.4,1,25.4-11,30.2-12,4.8-23.1.3-28.9-14.1h0ZM1261.9,353.2c-4.7-11.6-9.1-12.9-13.5-11.1-4.3,1.8-6.7,5.8-2,17.3s9.3,13.2,13.6,11.5c4.3-1.8,6.5-6.2,1.8-17.7h0Z"/>
  </g>
  <g>
    <path class="cls-2" d="M1200.9,505.3c0-2.9.4-7.3.6-10.2h-.4c-1.5,2.6-3.2,5.1-4.9,7.7l-7.9,10h32.6v8.2h-45.9v-7.4l22-27.4h17v45.8h-13.1v-26.7Z"/>
    <path class="cls-2" d="M1225.1,526.2l6.3-6.7c3.6,2.5,7.8,4.6,13,4.6s10.1-2.5,10.1-7.1-3.9-7.1-9.4-7.1-5.3.6-8.9,2.3l-6.2-3.1,1.7-23.1h34.1v9h-22.1l-1,8.5c2.3-.7,4.2-1,6.7-1,10.4,0,19.1,4.5,19.1,14.2s-10.4,16-22.1,15.9c-9.8,0-16.5-2.9-21.2-6.5h0Z"/>
    <path class="cls-2" d="M1276.5,508.9c0-15.6,8.6-23.5,21.6-23.5s21.5,8.1,21.4,23.6c0,15.6-8.6,23.9-21.6,23.9s-21.5-8.4-21.4-24h0ZM1306.3,509c0-12.5-3.6-15.3-8.3-15.4-4.7,0-8.3,2.8-8.4,15.3,0,12.5,3.6,15.8,8.3,15.8s8.3-3.2,8.4-15.7Z"/>
  </g>
  <g>
    <path class="cls-2" d="M1160.1,649.2c18.2-4.8,31.1-8.3,33.4-14.4,1.6-4.1-.6-7.6-5.5-9.4-4-1.5-8-.6-11.6.5l-5-8c7.2-2.4,13.3-2.7,21.4.4,11.1,4.2,16.6,12.5,13.4,20.7-2.7,7.2-14.5,11.5-26.5,15.2,3,.9,7,2.1,9.6,3.1l11.3,4.3-3.2,8.3-39.5-15.1,2.2-5.7h0Z"/>
    <path class="cls-2" d="M1212.8,651.1c5.5-14.5,16.4-18.9,28.5-14.3,12.1,4.6,17.2,15.2,11.7,29.6-5.5,14.5-16.6,19.3-28.6,14.7-12.1-4.6-17.1-15.5-11.5-30h0ZM1240.7,661.8c4.5-11.7,2.1-15.6-2.3-17.3s-8.8-.3-13.3,11.4c-4.4,11.7-2.2,16,2.2,17.7,4.4,1.7,9,0,13.4-11.7h0Z"/>
    <path class="cls-2" d="M1259.5,668.9c5.6-14.5,16.4-18.9,28.5-14.3,12.1,4.6,17.2,15.2,11.7,29.6-5.5,14.5-16.6,19.3-28.6,14.7-12.1-4.6-17.1-15.5-11.5-30h0ZM1287.4,679.6c4.5-11.7,2.1-15.6-2.3-17.3s-8.8-.3-13.3,11.4-2.2,16,2.2,17.7c4.4,1.7,9,0,13.4-11.7h0Z"/>
  </g>
  <g>
    <path class="cls-2" d="M1081.6,721.2l6.6,11.3,22.9-13.3-5.7-9.7,5.7-3.3c4.1,5.1,7.3,8.1,11.1,10.8l5.2,8.9-32.1,18.7,5.7,9.7-7.4,4.3-19.3-33.1,7.4-4.3h0Z"/>
    <path class="cls-2" d="M1101.9,762l8.9,2c-.4,4.4,0,9.1,2.6,13.5,3.1,5.3,7.2,7.5,11.3,5.1,4-2.3,4.2-6.9,1.4-11.7-1.8-3-3.2-4.3-6.5-6.5l-.5-6.9,20.8-10.2,17.2,29.4-7.7,4.5-11.1-19.1-7.9,3.5c1.8,1.6,3,3.1,4.3,5.2,5.2,9,5.8,18.8-2.6,23.7-8.8,5.1-19-.9-24.9-11-4.9-8.5-5.9-15.7-5.1-21.6h-.2Z"/>
    <path class="cls-2" d="M1142.9,797.5c13.4-7.8,24.6-4.4,31.2,6.7,6.5,11.2,3.9,22.6-9.5,30.4-13.4,7.8-25,4.6-31.5-6.5-6.5-11.2-3.6-22.8,9.8-30.6h0ZM1157.9,823.3c10.8-6.3,11.4-10.9,9.1-14.9-2.4-4-6.7-5.8-17.4.5-10.8,6.3-11.8,11.1-9.4,15.1s7,5.6,17.8-.7h0Z"/>
  </g>
  <g>
    <path class="cls-2" d="M955.7,775.9c2.9,0,7.3.4,10.2.6v-.4c-2.6-1.5-5.1-3.2-7.7-4.9l-10-7.9v32.6h-8.2v-45.9h7.4l27.4,22v17h-45.8v-13.1h26.7Z"/>
    <path class="cls-2" d="M952.2,801.5c15.6,0,23.5,8.6,23.5,21.6s-8.1,21.5-23.6,21.4c-15.6,0-23.9-8.6-23.9-21.6s8.4-21.5,24-21.4ZM952.2,831.4c12.5,0,15.3-3.6,15.4-8.3,0-4.7-2.8-8.3-15.3-8.4s-15.8,3.6-15.8,8.3,3.2,8.3,15.7,8.4h0Z"/>
    <path class="cls-2" d="M952.1,851.5c15.6,0,23.5,8.6,23.5,21.6s-8.1,21.5-23.6,21.4c-15.6,0-23.9-8.6-23.9-21.6s8.4-21.5,24-21.4ZM952,881.3c12.5,0,15.3-3.6,15.4-8.3,0-4.7-2.8-8.3-15.3-8.4s-15.8,3.6-15.8,8.3,3.2,8.3,15.7,8.4h0Z"/>
  </g>
  <g class="cls-16">
    <path class="cls-2" d="M815.1,714.6c1.1,18.8,2,32.1,7.5,35.6,3.7,2.4,7.5.9,10.3-3.5,2.3-3.6,2.2-7.7,1.8-11.5l8.9-3.3c.9,7.6,0,13.6-4.6,20.9-6.3,10-15.5,13.8-23,9.1-6.5-4.1-8.4-16.5-9.7-28.9-1.4,2.8-3.4,6.4-4.9,8.8l-6.5,10.2-7.5-4.8,22.6-35.7,5.1,3.2h0Z"/>
    <path class="cls-2" d="M788.8,755.4l2.3,8.9c-4.1,1.7-8.1,4.2-10.8,8.5-3.3,5.2-3.3,9.9.7,12.4,3.9,2.4,8,.5,11-4.2,1.9-2.9,2.3-4.8,2.8-8.8l5.9-3.6,18.6,13.7-18.2,28.8-7.5-4.8,11.8-18.7-6.7-5.4c-.6,2.3-1.4,4.1-2.7,6.2-5.5,8.8-14,13.8-22.2,8.6-8.6-5.4-8-17.3-1.7-27.2,5.2-8.3,11.2-12.4,16.8-14.5h0Z"/>
    <path class="cls-2" d="M776.2,808.2c13.2,8.3,15.3,19.8,8.4,30.7-6.9,10.9-18.3,13.9-31.4,5.6-13.2-8.3-15.7-20-8.8-31,6.9-10.9,18.6-13.7,31.7-5.4h0ZM760.2,833.4c10.6,6.7,14.9,5.1,17.4,1.1s2-8.6-8.5-15.2c-10.6-6.7-15.3-5.3-17.8-1.4-2.5,4-1.7,8.8,8.9,15.5h0Z"/>
  </g>
  <g>
    <path class="cls-2" d="M742.2,622.2l-2.7,8.8c-4.3-.7-9.1-.7-13.7,1.6-5.5,2.7-8,6.6-5.9,10.9,2,4.1,6.6,4.7,11.6,2.2,3.1-1.5,4.5-2.8,7-6h6.9l8.6,21.5-30.6,14.9-3.9-8,19.8-9.7-2.9-8.1c-1.7,1.7-3.3,2.8-5.5,3.9-9.3,4.5-19.2,4.4-23.4-4.4-4.4-9.1,2.3-18.9,12.8-24,8.8-4.3,16.1-4.7,21.9-3.5h0Z"/>
    <path class="cls-2" d="M703.7,660.4c6.8,14,2.6,24.9-9,30.6-11.6,5.7-22.8,2.2-29.6-11.7-6.8-14-2.8-25.3,8.8-30.9,11.6-5.7,23-1.9,29.8,12.1h0ZM676.9,673.4c5.5,11.2,10,12.2,14.2,10.1,4.2-2.1,6.2-6.2.8-17.4-5.5-11.2-10.2-12.6-14.4-10.5s-6.1,6.6-.6,17.8h0Z"/>
    <path class="cls-2" d="M658.8,682.2c6.8,14,2.6,24.9-9,30.6-11.6,5.7-22.8,2.2-29.6-11.7-6.8-14-2.8-25.3,8.8-30.9,11.6-5.7,23-1.9,29.8,12.1h0ZM632,695.3c5.5,11.2,10,12.2,14.2,10.1s6.2-6.2.8-17.4c-5.5-11.2-10.2-12.6-14.4-10.5s-6.1,6.6-.6,17.8h0Z"/>
  </g>
  <g>
    <path class="cls-2" d="M676.2,532.2l26.8,2.2-.7,8.9-41.7-3.5.5-6.5c15-11.6,17.6-20,20.1-37.7l13.9,1.2c-2.4,15.1-6.7,24.4-19,35.4h.1Z"/>
    <path class="cls-2" d="M655.1,516.7c-1.3,15.5-10.5,22.7-23.4,21.7s-20.8-9.8-19.5-25.2c1.3-15.5,10.5-23.1,23.4-22.1s20.7,10.1,19.4,25.6h0ZM625.3,514.2c-1,12.4,2.4,15.6,7,16,4.7.4,8.5-2.2,9.6-14.6,1-12.4-2.3-16-7-16.4s-8.6,2.6-9.6,15h0Z"/>
    <path class="cls-2" d="M605.3,512.5c-1.3,15.5-10.5,22.7-23.4,21.7s-20.8-9.8-19.5-25.2c1.3-15.5,10.5-23.1,23.4-22.1s20.7,10.1,19.4,25.6h0ZM575.5,510.1c-1,12.4,2.4,15.6,7,16,4.7.4,8.5-2.2,9.6-14.6,1-12.4-2.3-16-7-16.4s-8.6,2.6-9.6,15h0Z"/>
  </g>
  <g>
    <path class="cls-2" d="M866.2,318.7l-8.8-2.4c.5-4.4.3-9.1-2.1-13.6-2.9-5.4-6.9-7.7-11.1-5.5-4,2.2-4.4,6.7-1.8,11.7,1.6,3.1,3,4.4,6.2,6.7l.2,6.9-21.2,9.4-16-30.1,7.9-4.2,10.4,19.5,8-3.2c-1.7-1.7-2.9-3.2-4.1-5.4-4.9-9.2-5.1-19,3.5-23.6,9-4.8,19,1.6,24.5,11.9,4.6,8.7,5.3,15.9,4.3,21.8h0Z"/>
    <path class="cls-2" d="M842.7,274.6l-8.8-2.4c.5-4.4.3-9.1-2.1-13.6-2.9-5.4-6.9-7.7-11.1-5.5-4,2.2-4.4,6.7-1.8,11.7,1.6,3.1,3,4.4,6.2,6.7l.2,6.9-21.2,9.4-16-30.1,7.9-4.2,10.4,19.5,8-3.2c-1.7-1.7-2.9-3.2-4.1-5.4-4.9-9.2-5.1-19,3.5-23.6,9-4.8,19,1.6,24.5,11.9,4.6,8.7,5.3,15.9,4.3,21.8h0Z"/>
    <path class="cls-2" d="M803.1,237.6c-13.7,7.3-24.8,3.5-30.9-7.9-6.1-11.4-3-22.7,10.6-30,13.7-7.3,25.2-3.7,31.2,7.7,6.1,11.4,2.7,22.9-11,30.2h.1ZM789.1,211.3c-11,5.9-11.8,10.4-9.6,14.6,2.2,4.1,6.4,6,17.5.1,11-5.9,12.2-10.6,10-14.8-2.2-4.1-6.8-5.8-17.8,0h-.1Z"/>
  </g>
  <g>
    <path class="cls-2" d="M740.4,385.1l23.9,12.4-4.1,7.9-37.1-19.2,3-5.8c18.2-4.9,23.9-11.7,33.1-27l12.4,6.4c-8,13-15.6,19.9-31.2,25.3h0Z"/>
    <path class="cls-2" d="M736.1,347.7l-8.6,3.1c-2-3.9-4.9-7.7-9.4-10-5.5-2.8-10.1-2.4-12.3,1.7-2.1,4.1.2,8.1,5.1,10.6,3.1,1.6,5,1.9,9,2l4.1,5.6-12.1,19.8-30.3-15.7,4.1-7.9,19.6,10.1,4.8-7.2c-2.4-.4-4.2-1-6.4-2.1-9.2-4.8-14.9-12.8-10.5-21.4,4.7-9,16.5-9.5,26.9-4.1,8.7,4.5,13.4,10.1,15.9,15.5h.1Z"/>
    <path class="cls-2" d="M682.5,339.7c-7.1,13.8-18.4,17-29.9,11-11.5-5.9-15.4-17-8.3-30.8,7.1-13.8,18.6-17.3,30.1-11.4s15.2,17.3,8.1,31.1h0ZM656,326c-5.7,11.1-3.8,15.3.4,17.5s8.7,1.3,14.5-9.8c5.7-11.1,4-15.7-.2-17.8-4.2-2.2-8.9-.9-14.6,10.2h-.1Z"/>
  </g>
  <circle class="cls-12" cx="956.3" cy="514.7" r="51.6"/>
  <g>
    <path class="cls-2" d="M1092.9,410.8l6.8-3.8c7.3-4.1,14-3,18.6,5.2,4.6,8.2,2,14.7-5,18.6l-7.1,3.9-13.3-23.9ZM1110.2,426.8c4.1-2.3,5.7-5.8,2.5-11.5-3.2-5.7-6.9-6-11-3.7l-1,.6,8.4,15.2,1-.6Z"/>
    <path class="cls-2" d="M1123,413.5c-3.4-6.1-1-11.9,3.6-14.5,4.6-2.6,10.8-1.4,14.2,4.6,3.4,6,1,11.9-3.6,14.5-4.6,2.6-10.8,1.4-14.2-4.6ZM1135.2,406.7c-1.7-3.2-4-4.6-6.2-3.3-2.2,1.2-2.2,3.9-.5,7.1,1.7,3.2,4,4.6,6.2,3.3,2.2-1.2,2.2-3.9.5-7Z"/>
    <path class="cls-2" d="M1145.4,403.9l-6.3-11.3,5.4-3,5.9,10.6c1.5,2.6,2.6,3.1,4.2,2.2,1.4-.8,1.9-1.8,2.1-3.8l-6.7-12.1,5.4-3,10.1,18.2-4.4,2.4-1.8-2.3h-.1c-.5,2.7-1.6,4.8-4.1,6.2-4,2.2-7.2.3-9.7-4.2Z"/>
    <path class="cls-2" d="M1174,394.6h-.1c0,0,.6,2.3.6,2.3l-4.2,2.3-14.3-25.7,5.4-3,3.5,6.3,1.4,2.9c.7-2,2-3.7,3.7-4.7,4.4-2.4,9.2-.3,12.3,5.3,3.5,6.3,1.8,11.9-2.2,14.1-1.6.9-3.8,1-6.1.3ZM1176.8,383.3c-1.8-3.3-3.7-4.3-5.9-3.2-1.1.6-1.8,1.6-2.2,3.4l4.1,7.5c1.4.3,2.6,0,3.5-.5,1.9-1,2.5-3.5.4-7.2Z"/>
    <path class="cls-2" d="M1187.9,382l-11.1-20.1,5.4-3,11.2,20.3c.6,1.2,1.4,1.2,1.8,1,.2-.1.4-.2.6-.4l2.9,3.6c-.5.6-1.2,1.3-2.5,2-3.7,2.1-6.3.3-8.4-3.3Z"/>
    <path class="cls-2" d="M1195.5,373.3c-3.3-5.9-1.1-11.9,3.3-14.3,5.2-2.9,9.9-.5,12.6,4.4.5,1,1,2,1.1,2.5l-10.9,6c2,2.4,4.4,2.6,6.9,1.2,1.4-.8,2.4-1.9,3.3-3.4l3.6,2.3c-1.2,2.3-3.2,4.4-5.3,5.6-5.2,2.9-11.2,1.6-14.5-4.4ZM1206.1,364.8c-1.1-2-2.8-3-4.9-1.8-1.7.9-2.5,2.9-1.6,5.4l6.6-3.6Z"/>
    <path class="cls-2" d="M1215.1,343l8.2-4.6c5.3-2.9,10.6-3.4,13.8,2.4,3.1,5.6.2,10.5-4.9,13.3l-3,1.6,4.5,8.1-5.4,3-13.3-23.9ZM1229.6,350.1c3-1.6,3.7-3.8,2.3-6.2-1.4-2.5-3.5-2.5-6.4-.9l-2.5,1.4,4,7.2,2.6-1.5Z"/>
    <path class="cls-2" d="M1243,347c-3.4-6.1-1-11.9,3.6-14.5,4.6-2.6,10.8-1.4,14.2,4.6,3.4,6,1,11.9-3.6,14.5-4.6,2.6-10.8,1.4-14.2-4.6ZM1255.2,340.2c-1.7-3.2-4-4.6-6.2-3.3-2.2,1.2-2.2,3.9-.5,7.1s4,4.6,6.2,3.3,2.2-3.9.5-7Z"/>
    <path class="cls-2" d="M1255.9,320.7c-.9-1.7-.3-3.6,1.6-4.6,1.8-1,3.8-.6,4.7,1.1.9,1.6.3,3.6-1.6,4.6-1.8,1-3.8.6-4.7-1.1ZM1259.4,326l5.4-3,10.1,18.2-5.4,3-10.1-18.2Z"/>
    <path class="cls-2" d="M1269.5,320.4l4.4-2.4,1.7,2.1h.1c.7-2.4,1.8-4.7,4.3-6.1,4-2.2,7.2-.3,9.7,4.2l6.3,11.3-5.4,3-5.9-10.6c-1.5-2.6-2.6-3.1-4.2-2.2-1.4.8-1.8,1.8-2.4,3.6l6.8,12.3-5.4,3-10.1-18.2Z"/>
    <path class="cls-2" d="M1297.7,319.9l-4.1-7.4-2.5,1.4-2.2-4,2.7-1.8-2.1-5.2,4.5-2.5,2.7,4.8,4.4-2.4,2.3,4.2-4.4,2.4,4,7.3c1.1,2.1,2.5,2.4,4,1.6.6-.3,1.2-.9,1.5-1.3l3,3.4c-.8.8-1.9,1.9-3.7,2.9-4.5,2.5-7.9.6-10.2-3.6Z"/>
    <path class="cls-2" d="M1311.5,318.1l.6-4.7c2.3.3,4.2.2,5.8-.7,1.6-.9,2-1.9,1.4-2.8-.7-1.2-2.8-.7-5.1-.4-2.7.4-6.1.3-7.8-2.7-1.9-3.4-.4-7.2,3.8-9.6,2.8-1.5,5.5-1.6,7.7-1.3l-.6,4.6c-1.8-.2-3.4-.1-4.7.6-1.4.8-1.8,1.7-1.3,2.6.6,1.2,2.6.7,4.9.3,2.8-.4,6.1-.6,8,2.8,1.8,3.3.7,7.3-4.2,10-2.4,1.3-5.7,1.8-8.4,1.3Z"/>
  </g>
  <g>
    <path class="cls-2" d="M839.8,694.3l1.8,5.2c-2.5.8-4.8,2.4-5.9,4.3-1.3,2.2-1.1,3.8.3,4.7,1.5.9,2.8-.2,4.8-1.7l3.1-2.3c2.4-1.8,5.8-2.9,9.2-.9,3.9,2.3,4.9,7.7,2,12.6-1.6,2.7-4.4,4.9-7.6,5.7l-1.7-4.7c2.1-.8,3.6-1.9,4.8-3.8,1.1-1.8,1-3.5-.3-4.3-1.4-.9-2.9.4-4.9,1.9l-3,2.3c-2.9,2.2-5.9,2.8-9.2.8-3.9-2.3-5.3-7.6-2-13.2,1.8-3.1,4.9-5.6,8.6-6.7Z"/>
    <path class="cls-2" d="M842.1,724.4l-2.6,4.3-2-.7h0c.4,2.3.3,4.7-.9,6.5-2.6,4.3-7.8,4.8-13.3,1.5-6.1-3.7-7.5-9.4-5.1-13.3.9-1.5,2.5-2.6,4.4-3.1l-2.9-1.5-5.2-3.1,3.2-5.3,24.5,14.7ZM826.5,730.6c3.2,1.9,5.4,1.9,6.7-.2.7-1.1.7-2.3.2-4l-7.3-4.4c-1.4.5-2.3,1.3-2.8,2.2-1.1,1.8-.4,4.3,3.3,6.5Z"/>
    <path class="cls-2" d="M829.7,745l-3.2,5.3-17.9-10.7,3.2-5.3,17.9,10.7ZM835.3,747.8c1.6,1,2,2.9.9,4.7-1.1,1.8-3,2.4-4.6,1.4-1.6-1-2-2.9-.9-4.7,1.1-1.8,3-2.4,4.6-1.4Z"/>
    <path class="cls-2" d="M823.7,754.9l-2.6,4.3-2.5-1h0c.5,2.5.7,5.1-.7,7.5-2.3,3.9-6.1,3.9-10.5,1.2l-11.1-6.7,3.2-5.3,10.4,6.2c2.6,1.5,3.8,1.3,4.7-.2.8-1.3.7-2.5.2-4.4l-12.1-7.2,3.2-5.3,17.9,10.7Z"/>
    <path class="cls-2" d="M809.8,790.9l-3.8,6.4-27.9-6.7,3.4-5.6,13.7,4.1c2.7.8,5.9,1.8,8.7,2.6h0c-2.1-2.2-4.5-4.5-6.5-6.5l-10-10.2,3.3-5.4,19.1,21.5ZM797.5,780.2l-6.8,11.3-4.1-2.5,6.8-11.3,4.1,2.5Z"/>
    <path class="cls-2" d="M774.4,789.7c1.5.9,2.1,2.5,2.1,4.7h.1c1.2-.5,2.5-.6,4,.3,1.3.8,2,2.4,2.2,4h.1c1.6-.6,4-.8,6.1.5,4.3,2.6,4.3,7.4,2,11.3-.6,1-1.3,1.9-2.1,2.5l-3.9,6.5-3.9-2.3,1.7-2.9c-.7,0-1.8-.2-2.7-.8-4.1-2.5-4.1-6.7-1.8-10.6.4-.7.9-1.3,1.7-2-.1-.7-.3-1-1-1.4-.9-.5-1.7,0-2.9,1.9l-1.7,2.9c-2.6,4.4-5.4,6-8.6,4.1-3.7-2.2-4.1-7.7-.4-13.9,2.5-4.2,5.8-6.7,9-4.8ZM767.9,802.7c1.1.7,2-.1,3-1.9l1.1-1.9c.7-1.2,1.2-1.9,1.7-2.4-.2-1-.5-1.6-1.2-2-1.4-.8-3,.3-4.4,2.7-1.4,2.4-1.5,4.7-.3,5.4ZM783.1,809c1.9,1.1,3.5.7,4.4-.7.8-1.4.5-3-1.4-4.2-2-1.2-3.6-.7-4.4.7-.8,1.4-.4,3.1,1.5,4.2Z"/>
    <path class="cls-2" d="M771.1,813.4c3.8,2.3,4,6.5.5,14,1.6.8,3.1.7,4.3-1.3.9-1.5,1.2-3.4,1.2-5.7l4.6.2c0,3.1-.5,6.2-2.2,9-2.7,4.6-6.9,5.5-12.3,2.3l-10.2-6.1,2.6-4.3,2.1.7h0c-.4-2.4-.3-4.7.9-6.7,2-3.3,5.6-3.9,8.6-2.1ZM765.3,823.6l3.1,1.9c1.8-4.1,1.4-5.9,0-6.8-1.2-.7-2.2-.2-2.9,1-.7,1.2-.6,2.4-.2,3.9Z"/>
    <path class="cls-2" d="M772.2,840.9l-3.2,5.3-17.9-10.7,3.2-5.3,17.9,10.7ZM777.8,843.7c1.6,1,2,2.9.9,4.7-1.1,1.8-3,2.4-4.6,1.4-1.6-1-2-2.9-.9-4.7,1.1-1.8,3-2.4,4.6-1.4Z"/>
    <path class="cls-2" d="M766.2,850.9l-2.6,4.3-2.5-1h0c.5,2.5.7,5.1-.7,7.5-2.3,3.9-6.1,3.9-10.5,1.2l-11.1-6.7,3.2-5.3,10.4,6.2c2.6,1.5,3.8,1.3,4.7-.2.8-1.3.7-2.5.2-4.4l-12.1-7.2,3.2-5.3,17.9,10.7Z"/>
  </g>
</svg>